<?xml version="1.0" encoding="UTF-8" standalone="no"?>
<svg
   xmlns:dc="http://purl.org/dc/elements/1.1/"
   xmlns:cc="http://creativecommons.org/ns#"
   xmlns:rdf="http://www.w3.org/1999/02/22-rdf-syntax-ns#"
   xmlns:svg="http://www.w3.org/2000/svg"
   xmlns="http://www.w3.org/2000/svg"
   xmlns:sodipodi="http://sodipodi.sourceforge.net/DTD/sodipodi-0.dtd"
   xmlns:inkscape="http://www.inkscape.org/namespaces/inkscape"
   width="221.41058mm"
   height="208.94524mm"
   viewBox="0 0 221.41058 208.94524"
   version="1.1"
   id="svg8"
   sodipodi:docname="ferret-drawing.svg"
   inkscape:version="1.0.2 (e86c8708, 2021-01-15)">
  <sodipodi:namedview
     pagecolor="#ffffff"
     bordercolor="#666666"
     borderopacity="1"
     objecttolerance="10"
     gridtolerance="10"
     guidetolerance="10"
     inkscape:pageopacity="0"
     inkscape:pageshadow="2"
     inkscape:window-width="1680"
     inkscape:window-height="935"
     id="namedview852"
     showgrid="false"
     inkscape:zoom="0.50635846"
     inkscape:cx="325.8411"
     inkscape:cy="265.72105"
     inkscape:window-x="100"
     inkscape:window-y="23"
     inkscape:window-maximized="0"
     inkscape:current-layer="svg8" />
  <defs
     id="defs2">
    <mask
       maskUnits="userSpaceOnUse"
       id="mask932">
      <path
         id="path934"
         style="opacity:1;fill:#ff0000;fill-opacity:1;stroke-width:0.268137;stroke-linecap:round;stroke-linejoin:round"
         d="m 75.66153,38.121704 c -6.398789,-0.02569 -12.580601,1.981364 -16.529222,5.36608 -1.082331,0.927762 -2.517206,1.67054 -3.948596,2.044319 -2.793151,0.729401 -6.389495,2.525501 -7.534423,3.762563 -1.586561,1.714249 -2.910936,4.890098 -2.910936,6.980968 0,4.712917 2.564882,8.296264 6.835244,9.549805 l 2.503207,0.73484 0.367418,3.755843 c 0.250939,2.567429 0.192241,7.402279 -0.185517,15.280203 -0.803363,16.753565 -0.74915,26.976835 0.16588,31.178975 0.942261,4.32714 2.397601,8.64501 4.078819,12.10314 1.267812,2.60777 1.335837,2.97003 1.335837,7.09982 0,4.3293 -0.0049,4.35054 -0.894001,4.07831 -0.49177,-0.15052 -2.185112,-0.37324 -3.762563,-0.49507 -3.60158,-0.27815 -6.372407,0.72657 -8.771556,3.18069 -2.29675,2.34938 -3.242898,4.65357 -3.25355,7.92251 -0.01151,3.52932 0.957921,5.99178 3.84266,9.75806 3.48714,4.55278 7.737753,7.43178 13.930935,9.43664 1.6945,0.54854 3.706579,1.34279 4.471561,1.76526 1.849729,1.02154 8.599313,1.07159 17.179311,0.12713 v 5.3e-4 c 5.90908,-0.65046 6.390812,-0.65107 8.807733,-0.007 1.73427,0.46212 4.078579,0.6811 7.287408,0.6811 7.005191,0 9.917741,-1.11922 10.656711,-4.09588 0.15233,-0.61359 0.6575,-1.35806 1.12242,-1.65416 1.28047,-0.8155 6.01388,-1.40301 11.30422,-1.40301 3.8202,0 4.84367,0.12151 5.25962,0.6227 1.1558,1.39265 2.64729,1.76197 7.01198,1.73788 2.36043,-0.013 5.18585,-0.19996 6.27868,-0.41548 1.09282,-0.21553 5.20837,-0.54387 9.14518,-0.72967 6.66166,-0.31441 7.3841,-0.42471 10.4221,-1.59629 3.66424,-1.41308 7.26356,-3.8742 9.15035,-6.25646 1.94223,-2.45226 3.95083,-7.00763 4.48396,-10.16838 0.60415,-3.58181 0.25369,-9.04915 -0.83147,-12.96509 -1.75734,-6.34157 -6.71929,-14.67997 -11.84372,-19.90318 -1.97613,-2.01422 -3.31298,-3.80855 -4.1243,-5.53506 -2.0986,-4.46585 -4.87239,-7.51453 -10.04383,-11.040673 -1.8166,-1.23865 -6.75498,-3.2336 -9.90068,-3.999241 -2.1194,-0.515845 -4.43709,-0.677783 -9.37256,-0.655772 -5.90377,0.0263 -7.28055,0.174384 -13.81828,1.489832 -10.64721,2.142299 -13.686589,1.973183 -16.10134,-0.896586 -2.2815,-2.711429 -3.269184,-9.480682 -2.648935,-18.159616 l 0.373621,-5.225005 2.704746,-2.726447 c 3.798688,-3.829468 4.949558,-6.374257 5.006928,-11.071677 0.0389,-3.182107 -0.0819,-3.832122 -1.09554,-5.896279 C 97.827211,43.757117 87.204603,38.168098 75.66153,38.121727 Z m 82.48075,98.610516 c 0.42207,-0.005 0.91699,0.51947 1.27744,1.51877 0.8636,2.39424 0.69941,6.03672 -0.34158,7.58145 -1.41529,2.10015 -4.23136,3.76507 -4.80332,2.83962 -0.10486,-0.16967 0.49874,-2.44984 1.34152,-5.06687 0.84277,-2.61705 1.63969,-5.26211 1.77095,-5.87768 0.14252,-0.66839 0.42671,-0.99165 0.75499,-0.99529 z" />
    </mask>
    <mask
       maskUnits="userSpaceOnUse"
       id="mask936">
      <path
         id="path938"
         style="opacity:1;fill:#ff0000;fill-opacity:1;stroke-width:0.268137;stroke-linecap:round;stroke-linejoin:round"
         d="m 75.66153,38.121704 c -6.398789,-0.02569 -12.580601,1.981364 -16.529222,5.36608 -1.082331,0.927762 -2.517206,1.67054 -3.948596,2.044319 -2.793151,0.729401 -6.389495,2.525501 -7.534423,3.762563 -1.586561,1.714249 -2.910936,4.890098 -2.910936,6.980968 0,4.712917 2.564882,8.296264 6.835244,9.549805 l 2.503207,0.73484 0.367418,3.755843 c 0.250939,2.567429 0.192241,7.402279 -0.185517,15.280203 -0.803363,16.753565 -0.74915,26.976835 0.16588,31.178975 0.942261,4.32714 2.397601,8.64501 4.078819,12.10314 1.267812,2.60777 1.335837,2.97003 1.335837,7.09982 0,4.3293 -0.0049,4.35054 -0.894001,4.07831 -0.49177,-0.15052 -2.185112,-0.37324 -3.762563,-0.49507 -3.60158,-0.27815 -6.372407,0.72657 -8.771556,3.18069 -2.29675,2.34938 -3.242898,4.65357 -3.25355,7.92251 -0.01151,3.52932 0.957921,5.99178 3.84266,9.75806 3.48714,4.55278 7.737753,7.43178 13.930935,9.43664 1.6945,0.54854 3.706579,1.34279 4.471561,1.76526 1.849729,1.02154 8.599313,1.07159 17.179311,0.12713 v 5.3e-4 c 5.90908,-0.65046 6.390812,-0.65107 8.807733,-0.007 1.73427,0.46212 4.078579,0.6811 7.287408,0.6811 7.005191,0 9.917741,-1.11922 10.656711,-4.09588 0.15233,-0.61359 0.6575,-1.35806 1.12242,-1.65416 1.28047,-0.8155 6.01388,-1.40301 11.30422,-1.40301 3.8202,0 4.84367,0.12151 5.25962,0.6227 1.1558,1.39265 2.64729,1.76197 7.01198,1.73788 2.36043,-0.013 5.18585,-0.19996 6.27868,-0.41548 1.09282,-0.21553 5.20837,-0.54387 9.14518,-0.72967 6.66166,-0.31441 7.3841,-0.42471 10.4221,-1.59629 3.66424,-1.41308 7.26356,-3.8742 9.15035,-6.25646 1.94223,-2.45226 3.95083,-7.00763 4.48396,-10.16838 0.60415,-3.58181 0.25369,-9.04915 -0.83147,-12.96509 -1.75734,-6.34157 -6.71929,-14.67997 -11.84372,-19.90318 -1.97613,-2.01422 -3.31298,-3.80855 -4.1243,-5.53506 -2.0986,-4.46585 -4.87239,-7.51453 -10.04383,-11.040673 -1.8166,-1.23865 -6.75498,-3.2336 -9.90068,-3.999241 -2.1194,-0.515845 -4.43709,-0.677783 -9.37256,-0.655772 -5.90377,0.0263 -7.28055,0.174384 -13.81828,1.489832 -10.64721,2.142299 -13.686589,1.973183 -16.10134,-0.896586 -2.2815,-2.711429 -3.269184,-9.480682 -2.648935,-18.159616 l 0.373621,-5.225005 2.704746,-2.726447 c 3.798688,-3.829468 4.949558,-6.374257 5.006928,-11.071677 0.0389,-3.182107 -0.0819,-3.832122 -1.09554,-5.896279 C 97.827211,43.757117 87.204603,38.168098 75.66153,38.121727 Z m 82.48075,98.610516 c 0.42207,-0.005 0.91699,0.51947 1.27744,1.51877 0.8636,2.39424 0.69941,6.03672 -0.34158,7.58145 -1.41529,2.10015 -4.23136,3.76507 -4.80332,2.83962 -0.10486,-0.16967 0.49874,-2.44984 1.34152,-5.06687 0.84277,-2.61705 1.63969,-5.26211 1.77095,-5.87768 0.14252,-0.66839 0.42671,-0.99165 0.75499,-0.99529 z" />
    </mask>
    <mask
       maskUnits="userSpaceOnUse"
       id="mask940">
      <path
         id="path942"
         style="opacity:1;fill:#ff0000;fill-opacity:1;stroke-width:0.268137;stroke-linecap:round;stroke-linejoin:round"
         d="m 75.66153,38.121704 c -6.398789,-0.02569 -12.580601,1.981364 -16.529222,5.36608 -1.082331,0.927762 -2.517206,1.67054 -3.948596,2.044319 -2.793151,0.729401 -6.389495,2.525501 -7.534423,3.762563 -1.586561,1.714249 -2.910936,4.890098 -2.910936,6.980968 0,4.712917 2.564882,8.296264 6.835244,9.549805 l 2.503207,0.73484 0.367418,3.755843 c 0.250939,2.567429 0.192241,7.402279 -0.185517,15.280203 -0.803363,16.753565 -0.74915,26.976835 0.16588,31.178975 0.942261,4.32714 2.397601,8.64501 4.078819,12.10314 1.267812,2.60777 1.335837,2.97003 1.335837,7.09982 0,4.3293 -0.0049,4.35054 -0.894001,4.07831 -0.49177,-0.15052 -2.185112,-0.37324 -3.762563,-0.49507 -3.60158,-0.27815 -6.372407,0.72657 -8.771556,3.18069 -2.29675,2.34938 -3.242898,4.65357 -3.25355,7.92251 -0.01151,3.52932 0.957921,5.99178 3.84266,9.75806 3.48714,4.55278 7.737753,7.43178 13.930935,9.43664 1.6945,0.54854 3.706579,1.34279 4.471561,1.76526 1.849729,1.02154 8.599313,1.07159 17.179311,0.12713 v 5.3e-4 c 5.90908,-0.65046 6.390812,-0.65107 8.807733,-0.007 1.73427,0.46212 4.078579,0.6811 7.287408,0.6811 7.005191,0 9.917741,-1.11922 10.656711,-4.09588 0.15233,-0.61359 0.6575,-1.35806 1.12242,-1.65416 1.28047,-0.8155 6.01388,-1.40301 11.30422,-1.40301 3.8202,0 4.84367,0.12151 5.25962,0.6227 1.1558,1.39265 2.64729,1.76197 7.01198,1.73788 2.36043,-0.013 5.18585,-0.19996 6.27868,-0.41548 1.09282,-0.21553 5.20837,-0.54387 9.14518,-0.72967 6.66166,-0.31441 7.3841,-0.42471 10.4221,-1.59629 3.66424,-1.41308 7.26356,-3.8742 9.15035,-6.25646 1.94223,-2.45226 3.95083,-7.00763 4.48396,-10.16838 0.60415,-3.58181 0.25369,-9.04915 -0.83147,-12.96509 -1.75734,-6.34157 -6.71929,-14.67997 -11.84372,-19.90318 -1.97613,-2.01422 -3.31298,-3.80855 -4.1243,-5.53506 -2.0986,-4.46585 -4.87239,-7.51453 -10.04383,-11.040673 -1.8166,-1.23865 -6.75498,-3.2336 -9.90068,-3.999241 -2.1194,-0.515845 -4.43709,-0.677783 -9.37256,-0.655772 -5.90377,0.0263 -7.28055,0.174384 -13.81828,1.489832 -10.64721,2.142299 -13.686589,1.973183 -16.10134,-0.896586 -2.2815,-2.711429 -3.269184,-9.480682 -2.648935,-18.159616 l 0.373621,-5.225005 2.704746,-2.726447 c 3.798688,-3.829468 4.949558,-6.374257 5.006928,-11.071677 0.0389,-3.182107 -0.0819,-3.832122 -1.09554,-5.896279 C 97.827211,43.757117 87.204603,38.168098 75.66153,38.121727 Z m 82.48075,98.610516 c 0.42207,-0.005 0.91699,0.51947 1.27744,1.51877 0.8636,2.39424 0.69941,6.03672 -0.34158,7.58145 -1.41529,2.10015 -4.23136,3.76507 -4.80332,2.83962 -0.10486,-0.16967 0.49874,-2.44984 1.34152,-5.06687 0.84277,-2.61705 1.63969,-5.26211 1.77095,-5.87768 0.14252,-0.66839 0.42671,-0.99165 0.75499,-0.99529 z" />
    </mask>
    <mask
       maskUnits="userSpaceOnUse"
       id="mask944">
      <path
         id="path946"
         style="opacity:1;fill:#ff0000;fill-opacity:1;stroke-width:0.268137;stroke-linecap:round;stroke-linejoin:round"
         d="m 75.66153,38.121704 c -6.398789,-0.02569 -12.580601,1.981364 -16.529222,5.36608 -1.082331,0.927762 -2.517206,1.67054 -3.948596,2.044319 -2.793151,0.729401 -6.389495,2.525501 -7.534423,3.762563 -1.586561,1.714249 -2.910936,4.890098 -2.910936,6.980968 0,4.712917 2.564882,8.296264 6.835244,9.549805 l 2.503207,0.73484 0.367418,3.755843 c 0.250939,2.567429 0.192241,7.402279 -0.185517,15.280203 -0.803363,16.753565 -0.74915,26.976835 0.16588,31.178975 0.942261,4.32714 2.397601,8.64501 4.078819,12.10314 1.267812,2.60777 1.335837,2.97003 1.335837,7.09982 0,4.3293 -0.0049,4.35054 -0.894001,4.07831 -0.49177,-0.15052 -2.185112,-0.37324 -3.762563,-0.49507 -3.60158,-0.27815 -6.372407,0.72657 -8.771556,3.18069 -2.29675,2.34938 -3.242898,4.65357 -3.25355,7.92251 -0.01151,3.52932 0.957921,5.99178 3.84266,9.75806 3.48714,4.55278 7.737753,7.43178 13.930935,9.43664 1.6945,0.54854 3.706579,1.34279 4.471561,1.76526 1.849729,1.02154 8.599313,1.07159 17.179311,0.12713 v 5.3e-4 c 5.90908,-0.65046 6.390812,-0.65107 8.807733,-0.007 1.73427,0.46212 4.078579,0.6811 7.287408,0.6811 7.005191,0 9.917741,-1.11922 10.656711,-4.09588 0.15233,-0.61359 0.6575,-1.35806 1.12242,-1.65416 1.28047,-0.8155 6.01388,-1.40301 11.30422,-1.40301 3.8202,0 4.84367,0.12151 5.25962,0.6227 1.1558,1.39265 2.64729,1.76197 7.01198,1.73788 2.36043,-0.013 5.18585,-0.19996 6.27868,-0.41548 1.09282,-0.21553 5.20837,-0.54387 9.14518,-0.72967 6.66166,-0.31441 7.3841,-0.42471 10.4221,-1.59629 3.66424,-1.41308 7.26356,-3.8742 9.15035,-6.25646 1.94223,-2.45226 3.95083,-7.00763 4.48396,-10.16838 0.60415,-3.58181 0.25369,-9.04915 -0.83147,-12.96509 -1.75734,-6.34157 -6.71929,-14.67997 -11.84372,-19.90318 -1.97613,-2.01422 -3.31298,-3.80855 -4.1243,-5.53506 -2.0986,-4.46585 -4.87239,-7.51453 -10.04383,-11.040673 -1.8166,-1.23865 -6.75498,-3.2336 -9.90068,-3.999241 -2.1194,-0.515845 -4.43709,-0.677783 -9.37256,-0.655772 -5.90377,0.0263 -7.28055,0.174384 -13.81828,1.489832 -10.64721,2.142299 -13.686589,1.973183 -16.10134,-0.896586 -2.2815,-2.711429 -3.269184,-9.480682 -2.648935,-18.159616 l 0.373621,-5.225005 2.704746,-2.726447 c 3.798688,-3.829468 4.949558,-6.374257 5.006928,-11.071677 0.0389,-3.182107 -0.0819,-3.832122 -1.09554,-5.896279 C 97.827211,43.757117 87.204603,38.168098 75.66153,38.121727 Z m 82.48075,98.610516 c 0.42207,-0.005 0.91699,0.51947 1.27744,1.51877 0.8636,2.39424 0.69941,6.03672 -0.34158,7.58145 -1.41529,2.10015 -4.23136,3.76507 -4.80332,2.83962 -0.10486,-0.16967 0.49874,-2.44984 1.34152,-5.06687 0.84277,-2.61705 1.63969,-5.26211 1.77095,-5.87768 0.14252,-0.66839 0.42671,-0.99165 0.75499,-0.99529 z" />
    </mask>
    <mask
       maskUnits="userSpaceOnUse"
       id="mask948">
      <path
         id="path950"
         style="opacity:1;fill:#ff0000;fill-opacity:1;stroke-width:0.268137;stroke-linecap:round;stroke-linejoin:round"
         d="m 75.66153,38.121704 c -6.398789,-0.02569 -12.580601,1.981364 -16.529222,5.36608 -1.082331,0.927762 -2.517206,1.67054 -3.948596,2.044319 -2.793151,0.729401 -6.389495,2.525501 -7.534423,3.762563 -1.586561,1.714249 -2.910936,4.890098 -2.910936,6.980968 0,4.712917 2.564882,8.296264 6.835244,9.549805 l 2.503207,0.73484 0.367418,3.755843 c 0.250939,2.567429 0.192241,7.402279 -0.185517,15.280203 -0.803363,16.753565 -0.74915,26.976835 0.16588,31.178975 0.942261,4.32714 2.397601,8.64501 4.078819,12.10314 1.267812,2.60777 1.335837,2.97003 1.335837,7.09982 0,4.3293 -0.0049,4.35054 -0.894001,4.07831 -0.49177,-0.15052 -2.185112,-0.37324 -3.762563,-0.49507 -3.60158,-0.27815 -6.372407,0.72657 -8.771556,3.18069 -2.29675,2.34938 -3.242898,4.65357 -3.25355,7.92251 -0.01151,3.52932 0.957921,5.99178 3.84266,9.75806 3.48714,4.55278 7.737753,7.43178 13.930935,9.43664 1.6945,0.54854 3.706579,1.34279 4.471561,1.76526 1.849729,1.02154 8.599313,1.07159 17.179311,0.12713 v 5.3e-4 c 5.90908,-0.65046 6.390812,-0.65107 8.807733,-0.007 1.73427,0.46212 4.078579,0.6811 7.287408,0.6811 7.005191,0 9.917741,-1.11922 10.656711,-4.09588 0.15233,-0.61359 0.6575,-1.35806 1.12242,-1.65416 1.28047,-0.8155 6.01388,-1.40301 11.30422,-1.40301 3.8202,0 4.84367,0.12151 5.25962,0.6227 1.1558,1.39265 2.64729,1.76197 7.01198,1.73788 2.36043,-0.013 5.18585,-0.19996 6.27868,-0.41548 1.09282,-0.21553 5.20837,-0.54387 9.14518,-0.72967 6.66166,-0.31441 7.3841,-0.42471 10.4221,-1.59629 3.66424,-1.41308 7.26356,-3.8742 9.15035,-6.25646 1.94223,-2.45226 3.95083,-7.00763 4.48396,-10.16838 0.60415,-3.58181 0.25369,-9.04915 -0.83147,-12.96509 -1.75734,-6.34157 -6.71929,-14.67997 -11.84372,-19.90318 -1.97613,-2.01422 -3.31298,-3.80855 -4.1243,-5.53506 -2.0986,-4.46585 -4.87239,-7.51453 -10.04383,-11.040673 -1.8166,-1.23865 -6.75498,-3.2336 -9.90068,-3.999241 -2.1194,-0.515845 -4.43709,-0.677783 -9.37256,-0.655772 -5.90377,0.0263 -7.28055,0.174384 -13.81828,1.489832 -10.64721,2.142299 -13.686589,1.973183 -16.10134,-0.896586 -2.2815,-2.711429 -3.269184,-9.480682 -2.648935,-18.159616 l 0.373621,-5.225005 2.704746,-2.726447 c 3.798688,-3.829468 4.949558,-6.374257 5.006928,-11.071677 0.0389,-3.182107 -0.0819,-3.832122 -1.09554,-5.896279 C 97.827211,43.757117 87.204603,38.168098 75.66153,38.121727 Z m 82.48075,98.610516 c 0.42207,-0.005 0.91699,0.51947 1.27744,1.51877 0.8636,2.39424 0.69941,6.03672 -0.34158,7.58145 -1.41529,2.10015 -4.23136,3.76507 -4.80332,2.83962 -0.10486,-0.16967 0.49874,-2.44984 1.34152,-5.06687 0.84277,-2.61705 1.63969,-5.26211 1.77095,-5.87768 0.14252,-0.66839 0.42671,-0.99165 0.75499,-0.99529 z" />
    </mask>
    <mask
       maskUnits="userSpaceOnUse"
       id="mask952">
      <path
         id="path954"
         style="opacity:1;fill:#ff0000;fill-opacity:1;stroke-width:0.268137;stroke-linecap:round;stroke-linejoin:round"
         d="m 75.66153,38.121704 c -6.398789,-0.02569 -12.580601,1.981364 -16.529222,5.36608 -1.082331,0.927762 -2.517206,1.67054 -3.948596,2.044319 -2.793151,0.729401 -6.389495,2.525501 -7.534423,3.762563 -1.586561,1.714249 -2.910936,4.890098 -2.910936,6.980968 0,4.712917 2.564882,8.296264 6.835244,9.549805 l 2.503207,0.73484 0.367418,3.755843 c 0.250939,2.567429 0.192241,7.402279 -0.185517,15.280203 -0.803363,16.753565 -0.74915,26.976835 0.16588,31.178975 0.942261,4.32714 2.397601,8.64501 4.078819,12.10314 1.267812,2.60777 1.335837,2.97003 1.335837,7.09982 0,4.3293 -0.0049,4.35054 -0.894001,4.07831 -0.49177,-0.15052 -2.185112,-0.37324 -3.762563,-0.49507 -3.60158,-0.27815 -6.372407,0.72657 -8.771556,3.18069 -2.29675,2.34938 -3.242898,4.65357 -3.25355,7.92251 -0.01151,3.52932 0.957921,5.99178 3.84266,9.75806 3.48714,4.55278 7.737753,7.43178 13.930935,9.43664 1.6945,0.54854 3.706579,1.34279 4.471561,1.76526 1.849729,1.02154 8.599313,1.07159 17.179311,0.12713 v 5.3e-4 c 5.90908,-0.65046 6.390812,-0.65107 8.807733,-0.007 1.73427,0.46212 4.078579,0.6811 7.287408,0.6811 7.005191,0 9.917741,-1.11922 10.656711,-4.09588 0.15233,-0.61359 0.6575,-1.35806 1.12242,-1.65416 1.28047,-0.8155 6.01388,-1.40301 11.30422,-1.40301 3.8202,0 4.84367,0.12151 5.25962,0.6227 1.1558,1.39265 2.64729,1.76197 7.01198,1.73788 2.36043,-0.013 5.18585,-0.19996 6.27868,-0.41548 1.09282,-0.21553 5.20837,-0.54387 9.14518,-0.72967 6.66166,-0.31441 7.3841,-0.42471 10.4221,-1.59629 3.66424,-1.41308 7.26356,-3.8742 9.15035,-6.25646 1.94223,-2.45226 3.95083,-7.00763 4.48396,-10.16838 0.60415,-3.58181 0.25369,-9.04915 -0.83147,-12.96509 -1.75734,-6.34157 -6.71929,-14.67997 -11.84372,-19.90318 -1.97613,-2.01422 -3.31298,-3.80855 -4.1243,-5.53506 -2.0986,-4.46585 -4.87239,-7.51453 -10.04383,-11.040673 -1.8166,-1.23865 -6.75498,-3.2336 -9.90068,-3.999241 -2.1194,-0.515845 -4.43709,-0.677783 -9.37256,-0.655772 -5.90377,0.0263 -7.28055,0.174384 -13.81828,1.489832 -10.64721,2.142299 -13.686589,1.973183 -16.10134,-0.896586 -2.2815,-2.711429 -3.269184,-9.480682 -2.648935,-18.159616 l 0.373621,-5.225005 2.704746,-2.726447 c 3.798688,-3.829468 4.949558,-6.374257 5.006928,-11.071677 0.0389,-3.182107 -0.0819,-3.832122 -1.09554,-5.896279 C 97.827211,43.757117 87.204603,38.168098 75.66153,38.121727 Z m 82.48075,98.610516 c 0.42207,-0.005 0.91699,0.51947 1.27744,1.51877 0.8636,2.39424 0.69941,6.03672 -0.34158,7.58145 -1.41529,2.10015 -4.23136,3.76507 -4.80332,2.83962 -0.10486,-0.16967 0.49874,-2.44984 1.34152,-5.06687 0.84277,-2.61705 1.63969,-5.26211 1.77095,-5.87768 0.14252,-0.66839 0.42671,-0.99165 0.75499,-0.99529 z" />
    </mask>
    <mask
       maskUnits="userSpaceOnUse"
       id="mask956">
      <path
         id="path958"
         style="opacity:1;fill:#ff0000;fill-opacity:1;stroke-width:0.268137;stroke-linecap:round;stroke-linejoin:round"
         d="m 75.66153,38.121704 c -6.398789,-0.02569 -12.580601,1.981364 -16.529222,5.36608 -1.082331,0.927762 -2.517206,1.67054 -3.948596,2.044319 -2.793151,0.729401 -6.389495,2.525501 -7.534423,3.762563 -1.586561,1.714249 -2.910936,4.890098 -2.910936,6.980968 0,4.712917 2.564882,8.296264 6.835244,9.549805 l 2.503207,0.73484 0.367418,3.755843 c 0.250939,2.567429 0.192241,7.402279 -0.185517,15.280203 -0.803363,16.753565 -0.74915,26.976835 0.16588,31.178975 0.942261,4.32714 2.397601,8.64501 4.078819,12.10314 1.267812,2.60777 1.335837,2.97003 1.335837,7.09982 0,4.3293 -0.0049,4.35054 -0.894001,4.07831 -0.49177,-0.15052 -2.185112,-0.37324 -3.762563,-0.49507 -3.60158,-0.27815 -6.372407,0.72657 -8.771556,3.18069 -2.29675,2.34938 -3.242898,4.65357 -3.25355,7.92251 -0.01151,3.52932 0.957921,5.99178 3.84266,9.75806 3.48714,4.55278 7.737753,7.43178 13.930935,9.43664 1.6945,0.54854 3.706579,1.34279 4.471561,1.76526 1.849729,1.02154 8.599313,1.07159 17.179311,0.12713 v 5.3e-4 c 5.90908,-0.65046 6.390812,-0.65107 8.807733,-0.007 1.73427,0.46212 4.078579,0.6811 7.287408,0.6811 7.005191,0 9.917741,-1.11922 10.656711,-4.09588 0.15233,-0.61359 0.6575,-1.35806 1.12242,-1.65416 1.28047,-0.8155 6.01388,-1.40301 11.30422,-1.40301 3.8202,0 4.84367,0.12151 5.25962,0.6227 1.1558,1.39265 2.64729,1.76197 7.01198,1.73788 2.36043,-0.013 5.18585,-0.19996 6.27868,-0.41548 1.09282,-0.21553 5.20837,-0.54387 9.14518,-0.72967 6.66166,-0.31441 7.3841,-0.42471 10.4221,-1.59629 3.66424,-1.41308 7.26356,-3.8742 9.15035,-6.25646 1.94223,-2.45226 3.95083,-7.00763 4.48396,-10.16838 0.60415,-3.58181 0.25369,-9.04915 -0.83147,-12.96509 -1.75734,-6.34157 -6.71929,-14.67997 -11.84372,-19.90318 -1.97613,-2.01422 -3.31298,-3.80855 -4.1243,-5.53506 -2.0986,-4.46585 -4.87239,-7.51453 -10.04383,-11.040673 -1.8166,-1.23865 -6.75498,-3.2336 -9.90068,-3.999241 -2.1194,-0.515845 -4.43709,-0.677783 -9.37256,-0.655772 -5.90377,0.0263 -7.28055,0.174384 -13.81828,1.489832 -10.64721,2.142299 -13.686589,1.973183 -16.10134,-0.896586 -2.2815,-2.711429 -3.269184,-9.480682 -2.648935,-18.159616 l 0.373621,-5.225005 2.704746,-2.726447 c 3.798688,-3.829468 4.949558,-6.374257 5.006928,-11.071677 0.0389,-3.182107 -0.0819,-3.832122 -1.09554,-5.896279 C 97.827211,43.757117 87.204603,38.168098 75.66153,38.121727 Z m 82.48075,98.610516 c 0.42207,-0.005 0.91699,0.51947 1.27744,1.51877 0.8636,2.39424 0.69941,6.03672 -0.34158,7.58145 -1.41529,2.10015 -4.23136,3.76507 -4.80332,2.83962 -0.10486,-0.16967 0.49874,-2.44984 1.34152,-5.06687 0.84277,-2.61705 1.63969,-5.26211 1.77095,-5.87768 0.14252,-0.66839 0.42671,-0.99165 0.75499,-0.99529 z" />
    </mask>
    <mask
       maskUnits="userSpaceOnUse"
       id="mask960">
      <path
         id="path962"
         style="opacity:1;fill:#ff0000;fill-opacity:1;stroke-width:0.268137;stroke-linecap:round;stroke-linejoin:round"
         d="m 75.66153,38.121704 c -6.398789,-0.02569 -12.580601,1.981364 -16.529222,5.36608 -1.082331,0.927762 -2.517206,1.67054 -3.948596,2.044319 -2.793151,0.729401 -6.389495,2.525501 -7.534423,3.762563 -1.586561,1.714249 -2.910936,4.890098 -2.910936,6.980968 0,4.712917 2.564882,8.296264 6.835244,9.549805 l 2.503207,0.73484 0.367418,3.755843 c 0.250939,2.567429 0.192241,7.402279 -0.185517,15.280203 -0.803363,16.753565 -0.74915,26.976835 0.16588,31.178975 0.942261,4.32714 2.397601,8.64501 4.078819,12.10314 1.267812,2.60777 1.335837,2.97003 1.335837,7.09982 0,4.3293 -0.0049,4.35054 -0.894001,4.07831 -0.49177,-0.15052 -2.185112,-0.37324 -3.762563,-0.49507 -3.60158,-0.27815 -6.372407,0.72657 -8.771556,3.18069 -2.29675,2.34938 -3.242898,4.65357 -3.25355,7.92251 -0.01151,3.52932 0.957921,5.99178 3.84266,9.75806 3.48714,4.55278 7.737753,7.43178 13.930935,9.43664 1.6945,0.54854 3.706579,1.34279 4.471561,1.76526 1.849729,1.02154 8.599313,1.07159 17.179311,0.12713 v 5.3e-4 c 5.90908,-0.65046 6.390812,-0.65107 8.807733,-0.007 1.73427,0.46212 4.078579,0.6811 7.287408,0.6811 7.005191,0 9.917741,-1.11922 10.656711,-4.09588 0.15233,-0.61359 0.6575,-1.35806 1.12242,-1.65416 1.28047,-0.8155 6.01388,-1.40301 11.30422,-1.40301 3.8202,0 4.84367,0.12151 5.25962,0.6227 1.1558,1.39265 2.64729,1.76197 7.01198,1.73788 2.36043,-0.013 5.18585,-0.19996 6.27868,-0.41548 1.09282,-0.21553 5.20837,-0.54387 9.14518,-0.72967 6.66166,-0.31441 7.3841,-0.42471 10.4221,-1.59629 3.66424,-1.41308 7.26356,-3.8742 9.15035,-6.25646 1.94223,-2.45226 3.95083,-7.00763 4.48396,-10.16838 0.60415,-3.58181 0.25369,-9.04915 -0.83147,-12.96509 -1.75734,-6.34157 -6.71929,-14.67997 -11.84372,-19.90318 -1.97613,-2.01422 -3.31298,-3.80855 -4.1243,-5.53506 -2.0986,-4.46585 -4.87239,-7.51453 -10.04383,-11.040673 -1.8166,-1.23865 -6.75498,-3.2336 -9.90068,-3.999241 -2.1194,-0.515845 -4.43709,-0.677783 -9.37256,-0.655772 -5.90377,0.0263 -7.28055,0.174384 -13.81828,1.489832 -10.64721,2.142299 -13.686589,1.973183 -16.10134,-0.896586 -2.2815,-2.711429 -3.269184,-9.480682 -2.648935,-18.159616 l 0.373621,-5.225005 2.704746,-2.726447 c 3.798688,-3.829468 4.949558,-6.374257 5.006928,-11.071677 0.0389,-3.182107 -0.0819,-3.832122 -1.09554,-5.896279 C 97.827211,43.757117 87.204603,38.168098 75.66153,38.121727 Z m 82.48075,98.610516 c 0.42207,-0.005 0.91699,0.51947 1.27744,1.51877 0.8636,2.39424 0.69941,6.03672 -0.34158,7.58145 -1.41529,2.10015 -4.23136,3.76507 -4.80332,2.83962 -0.10486,-0.16967 0.49874,-2.44984 1.34152,-5.06687 0.84277,-2.61705 1.63969,-5.26211 1.77095,-5.87768 0.14252,-0.66839 0.42671,-0.99165 0.75499,-0.99529 z" />
    </mask>
    <mask
       maskUnits="userSpaceOnUse"
       id="mask964">
      <path
         id="path966"
         style="opacity:1;fill:#ff0000;fill-opacity:1;stroke-width:0.268137;stroke-linecap:round;stroke-linejoin:round"
         d="m 75.66153,38.121704 c -6.398789,-0.02569 -12.580601,1.981364 -16.529222,5.36608 -1.082331,0.927762 -2.517206,1.67054 -3.948596,2.044319 -2.793151,0.729401 -6.389495,2.525501 -7.534423,3.762563 -1.586561,1.714249 -2.910936,4.890098 -2.910936,6.980968 0,4.712917 2.564882,8.296264 6.835244,9.549805 l 2.503207,0.73484 0.367418,3.755843 c 0.250939,2.567429 0.192241,7.402279 -0.185517,15.280203 -0.803363,16.753565 -0.74915,26.976835 0.16588,31.178975 0.942261,4.32714 2.397601,8.64501 4.078819,12.10314 1.267812,2.60777 1.335837,2.97003 1.335837,7.09982 0,4.3293 -0.0049,4.35054 -0.894001,4.07831 -0.49177,-0.15052 -2.185112,-0.37324 -3.762563,-0.49507 -3.60158,-0.27815 -6.372407,0.72657 -8.771556,3.18069 -2.29675,2.34938 -3.242898,4.65357 -3.25355,7.92251 -0.01151,3.52932 0.957921,5.99178 3.84266,9.75806 3.48714,4.55278 7.737753,7.43178 13.930935,9.43664 1.6945,0.54854 3.706579,1.34279 4.471561,1.76526 1.849729,1.02154 8.599313,1.07159 17.179311,0.12713 v 5.3e-4 c 5.90908,-0.65046 6.390812,-0.65107 8.807733,-0.007 1.73427,0.46212 4.078579,0.6811 7.287408,0.6811 7.005191,0 9.917741,-1.11922 10.656711,-4.09588 0.15233,-0.61359 0.6575,-1.35806 1.12242,-1.65416 1.28047,-0.8155 6.01388,-1.40301 11.30422,-1.40301 3.8202,0 4.84367,0.12151 5.25962,0.6227 1.1558,1.39265 2.64729,1.76197 7.01198,1.73788 2.36043,-0.013 5.18585,-0.19996 6.27868,-0.41548 1.09282,-0.21553 5.20837,-0.54387 9.14518,-0.72967 6.66166,-0.31441 7.3841,-0.42471 10.4221,-1.59629 3.66424,-1.41308 7.26356,-3.8742 9.15035,-6.25646 1.94223,-2.45226 3.95083,-7.00763 4.48396,-10.16838 0.60415,-3.58181 0.25369,-9.04915 -0.83147,-12.96509 -1.75734,-6.34157 -6.71929,-14.67997 -11.84372,-19.90318 -1.97613,-2.01422 -3.31298,-3.80855 -4.1243,-5.53506 -2.0986,-4.46585 -4.87239,-7.51453 -10.04383,-11.040673 -1.8166,-1.23865 -6.75498,-3.2336 -9.90068,-3.999241 -2.1194,-0.515845 -4.43709,-0.677783 -9.37256,-0.655772 -5.90377,0.0263 -7.28055,0.174384 -13.81828,1.489832 -10.64721,2.142299 -13.686589,1.973183 -16.10134,-0.896586 -2.2815,-2.711429 -3.269184,-9.480682 -2.648935,-18.159616 l 0.373621,-5.225005 2.704746,-2.726447 c 3.798688,-3.829468 4.949558,-6.374257 5.006928,-11.071677 0.0389,-3.182107 -0.0819,-3.832122 -1.09554,-5.896279 C 97.827211,43.757117 87.204603,38.168098 75.66153,38.121727 Z m 82.48075,98.610516 c 0.42207,-0.005 0.91699,0.51947 1.27744,1.51877 0.8636,2.39424 0.69941,6.03672 -0.34158,7.58145 -1.41529,2.10015 -4.23136,3.76507 -4.80332,2.83962 -0.10486,-0.16967 0.49874,-2.44984 1.34152,-5.06687 0.84277,-2.61705 1.63969,-5.26211 1.77095,-5.87768 0.14252,-0.66839 0.42671,-0.99165 0.75499,-0.99529 z" />
    </mask>
    <mask
       maskUnits="userSpaceOnUse"
       id="mask968">
      <path
         id="path970"
         style="opacity:1;fill:#ff0000;fill-opacity:1;stroke-width:0.268137;stroke-linecap:round;stroke-linejoin:round"
         d="m 75.66153,38.121704 c -6.398789,-0.02569 -12.580601,1.981364 -16.529222,5.36608 -1.082331,0.927762 -2.517206,1.67054 -3.948596,2.044319 -2.793151,0.729401 -6.389495,2.525501 -7.534423,3.762563 -1.586561,1.714249 -2.910936,4.890098 -2.910936,6.980968 0,4.712917 2.564882,8.296264 6.835244,9.549805 l 2.503207,0.73484 0.367418,3.755843 c 0.250939,2.567429 0.192241,7.402279 -0.185517,15.280203 -0.803363,16.753565 -0.74915,26.976835 0.16588,31.178975 0.942261,4.32714 2.397601,8.64501 4.078819,12.10314 1.267812,2.60777 1.335837,2.97003 1.335837,7.09982 0,4.3293 -0.0049,4.35054 -0.894001,4.07831 -0.49177,-0.15052 -2.185112,-0.37324 -3.762563,-0.49507 -3.60158,-0.27815 -6.372407,0.72657 -8.771556,3.18069 -2.29675,2.34938 -3.242898,4.65357 -3.25355,7.92251 -0.01151,3.52932 0.957921,5.99178 3.84266,9.75806 3.48714,4.55278 7.737753,7.43178 13.930935,9.43664 1.6945,0.54854 3.706579,1.34279 4.471561,1.76526 1.849729,1.02154 8.599313,1.07159 17.179311,0.12713 v 5.3e-4 c 5.90908,-0.65046 6.390812,-0.65107 8.807733,-0.007 1.73427,0.46212 4.078579,0.6811 7.287408,0.6811 7.005191,0 9.917741,-1.11922 10.656711,-4.09588 0.15233,-0.61359 0.6575,-1.35806 1.12242,-1.65416 1.28047,-0.8155 6.01388,-1.40301 11.30422,-1.40301 3.8202,0 4.84367,0.12151 5.25962,0.6227 1.1558,1.39265 2.64729,1.76197 7.01198,1.73788 2.36043,-0.013 5.18585,-0.19996 6.27868,-0.41548 1.09282,-0.21553 5.20837,-0.54387 9.14518,-0.72967 6.66166,-0.31441 7.3841,-0.42471 10.4221,-1.59629 3.66424,-1.41308 7.26356,-3.8742 9.15035,-6.25646 1.94223,-2.45226 3.95083,-7.00763 4.48396,-10.16838 0.60415,-3.58181 0.25369,-9.04915 -0.83147,-12.96509 -1.75734,-6.34157 -6.71929,-14.67997 -11.84372,-19.90318 -1.97613,-2.01422 -3.31298,-3.80855 -4.1243,-5.53506 -2.0986,-4.46585 -4.87239,-7.51453 -10.04383,-11.040673 -1.8166,-1.23865 -6.75498,-3.2336 -9.90068,-3.999241 -2.1194,-0.515845 -4.43709,-0.677783 -9.37256,-0.655772 -5.90377,0.0263 -7.28055,0.174384 -13.81828,1.489832 -10.64721,2.142299 -13.686589,1.973183 -16.10134,-0.896586 -2.2815,-2.711429 -3.269184,-9.480682 -2.648935,-18.159616 l 0.373621,-5.225005 2.704746,-2.726447 c 3.798688,-3.829468 4.949558,-6.374257 5.006928,-11.071677 0.0389,-3.182107 -0.0819,-3.832122 -1.09554,-5.896279 C 97.827211,43.757117 87.204603,38.168098 75.66153,38.121727 Z m 82.48075,98.610516 c 0.42207,-0.005 0.91699,0.51947 1.27744,1.51877 0.8636,2.39424 0.69941,6.03672 -0.34158,7.58145 -1.41529,2.10015 -4.23136,3.76507 -4.80332,2.83962 -0.10486,-0.16967 0.49874,-2.44984 1.34152,-5.06687 0.84277,-2.61705 1.63969,-5.26211 1.77095,-5.87768 0.14252,-0.66839 0.42671,-0.99165 0.75499,-0.99529 z" />
    </mask>
    <mask
       maskUnits="userSpaceOnUse"
       id="mask972">
      <path
         id="path974"
         style="opacity:1;fill:#ff0000;fill-opacity:1;stroke-width:0.268137;stroke-linecap:round;stroke-linejoin:round"
         d="m 75.66153,38.121704 c -6.398789,-0.02569 -12.580601,1.981364 -16.529222,5.36608 -1.082331,0.927762 -2.517206,1.67054 -3.948596,2.044319 -2.793151,0.729401 -6.389495,2.525501 -7.534423,3.762563 -1.586561,1.714249 -2.910936,4.890098 -2.910936,6.980968 0,4.712917 2.564882,8.296264 6.835244,9.549805 l 2.503207,0.73484 0.367418,3.755843 c 0.250939,2.567429 0.192241,7.402279 -0.185517,15.280203 -0.803363,16.753565 -0.74915,26.976835 0.16588,31.178975 0.942261,4.32714 2.397601,8.64501 4.078819,12.10314 1.267812,2.60777 1.335837,2.97003 1.335837,7.09982 0,4.3293 -0.0049,4.35054 -0.894001,4.07831 -0.49177,-0.15052 -2.185112,-0.37324 -3.762563,-0.49507 -3.60158,-0.27815 -6.372407,0.72657 -8.771556,3.18069 -2.29675,2.34938 -3.242898,4.65357 -3.25355,7.92251 -0.01151,3.52932 0.957921,5.99178 3.84266,9.75806 3.48714,4.55278 7.737753,7.43178 13.930935,9.43664 1.6945,0.54854 3.706579,1.34279 4.471561,1.76526 1.849729,1.02154 8.599313,1.07159 17.179311,0.12713 v 5.3e-4 c 5.90908,-0.65046 6.390812,-0.65107 8.807733,-0.007 1.73427,0.46212 4.078579,0.6811 7.287408,0.6811 7.005191,0 9.917741,-1.11922 10.656711,-4.09588 0.15233,-0.61359 0.6575,-1.35806 1.12242,-1.65416 1.28047,-0.8155 6.01388,-1.40301 11.30422,-1.40301 3.8202,0 4.84367,0.12151 5.25962,0.6227 1.1558,1.39265 2.64729,1.76197 7.01198,1.73788 2.36043,-0.013 5.18585,-0.19996 6.27868,-0.41548 1.09282,-0.21553 5.20837,-0.54387 9.14518,-0.72967 6.66166,-0.31441 7.3841,-0.42471 10.4221,-1.59629 3.66424,-1.41308 7.26356,-3.8742 9.15035,-6.25646 1.94223,-2.45226 3.95083,-7.00763 4.48396,-10.16838 0.60415,-3.58181 0.25369,-9.04915 -0.83147,-12.96509 -1.75734,-6.34157 -6.71929,-14.67997 -11.84372,-19.90318 -1.97613,-2.01422 -3.31298,-3.80855 -4.1243,-5.53506 -2.0986,-4.46585 -4.87239,-7.51453 -10.04383,-11.040673 -1.8166,-1.23865 -6.75498,-3.2336 -9.90068,-3.999241 -2.1194,-0.515845 -4.43709,-0.677783 -9.37256,-0.655772 -5.90377,0.0263 -7.28055,0.174384 -13.81828,1.489832 -10.64721,2.142299 -13.686589,1.973183 -16.10134,-0.896586 -2.2815,-2.711429 -3.269184,-9.480682 -2.648935,-18.159616 l 0.373621,-5.225005 2.704746,-2.726447 c 3.798688,-3.829468 4.949558,-6.374257 5.006928,-11.071677 0.0389,-3.182107 -0.0819,-3.832122 -1.09554,-5.896279 C 97.827211,43.757117 87.204603,38.168098 75.66153,38.121727 Z m 82.48075,98.610516 c 0.42207,-0.005 0.91699,0.51947 1.27744,1.51877 0.8636,2.39424 0.69941,6.03672 -0.34158,7.58145 -1.41529,2.10015 -4.23136,3.76507 -4.80332,2.83962 -0.10486,-0.16967 0.49874,-2.44984 1.34152,-5.06687 0.84277,-2.61705 1.63969,-5.26211 1.77095,-5.87768 0.14252,-0.66839 0.42671,-0.99165 0.75499,-0.99529 z" />
    </mask>
    <mask
       maskUnits="userSpaceOnUse"
       id="mask976">
      <path
         id="path978"
         style="opacity:1;fill:#ff0000;fill-opacity:1;stroke-width:0.268137;stroke-linecap:round;stroke-linejoin:round"
         d="m 75.66153,38.121704 c -6.398789,-0.02569 -12.580601,1.981364 -16.529222,5.36608 -1.082331,0.927762 -2.517206,1.67054 -3.948596,2.044319 -2.793151,0.729401 -6.389495,2.525501 -7.534423,3.762563 -1.586561,1.714249 -2.910936,4.890098 -2.910936,6.980968 0,4.712917 2.564882,8.296264 6.835244,9.549805 l 2.503207,0.73484 0.367418,3.755843 c 0.250939,2.567429 0.192241,7.402279 -0.185517,15.280203 -0.803363,16.753565 -0.74915,26.976835 0.16588,31.178975 0.942261,4.32714 2.397601,8.64501 4.078819,12.10314 1.267812,2.60777 1.335837,2.97003 1.335837,7.09982 0,4.3293 -0.0049,4.35054 -0.894001,4.07831 -0.49177,-0.15052 -2.185112,-0.37324 -3.762563,-0.49507 -3.60158,-0.27815 -6.372407,0.72657 -8.771556,3.18069 -2.29675,2.34938 -3.242898,4.65357 -3.25355,7.92251 -0.01151,3.52932 0.957921,5.99178 3.84266,9.75806 3.48714,4.55278 7.737753,7.43178 13.930935,9.43664 1.6945,0.54854 3.706579,1.34279 4.471561,1.76526 1.849729,1.02154 8.599313,1.07159 17.179311,0.12713 v 5.3e-4 c 5.90908,-0.65046 6.390812,-0.65107 8.807733,-0.007 1.73427,0.46212 4.078579,0.6811 7.287408,0.6811 7.005191,0 9.917741,-1.11922 10.656711,-4.09588 0.15233,-0.61359 0.6575,-1.35806 1.12242,-1.65416 1.28047,-0.8155 6.01388,-1.40301 11.30422,-1.40301 3.8202,0 4.84367,0.12151 5.25962,0.6227 1.1558,1.39265 2.64729,1.76197 7.01198,1.73788 2.36043,-0.013 5.18585,-0.19996 6.27868,-0.41548 1.09282,-0.21553 5.20837,-0.54387 9.14518,-0.72967 6.66166,-0.31441 7.3841,-0.42471 10.4221,-1.59629 3.66424,-1.41308 7.26356,-3.8742 9.15035,-6.25646 1.94223,-2.45226 3.95083,-7.00763 4.48396,-10.16838 0.60415,-3.58181 0.25369,-9.04915 -0.83147,-12.96509 -1.75734,-6.34157 -6.71929,-14.67997 -11.84372,-19.90318 -1.97613,-2.01422 -3.31298,-3.80855 -4.1243,-5.53506 -2.0986,-4.46585 -4.87239,-7.51453 -10.04383,-11.040673 -1.8166,-1.23865 -6.75498,-3.2336 -9.90068,-3.999241 -2.1194,-0.515845 -4.43709,-0.677783 -9.37256,-0.655772 -5.90377,0.0263 -7.28055,0.174384 -13.81828,1.489832 -10.64721,2.142299 -13.686589,1.973183 -16.10134,-0.896586 -2.2815,-2.711429 -3.269184,-9.480682 -2.648935,-18.159616 l 0.373621,-5.225005 2.704746,-2.726447 c 3.798688,-3.829468 4.949558,-6.374257 5.006928,-11.071677 0.0389,-3.182107 -0.0819,-3.832122 -1.09554,-5.896279 C 97.827211,43.757117 87.204603,38.168098 75.66153,38.121727 Z m 82.48075,98.610516 c 0.42207,-0.005 0.91699,0.51947 1.27744,1.51877 0.8636,2.39424 0.69941,6.03672 -0.34158,7.58145 -1.41529,2.10015 -4.23136,3.76507 -4.80332,2.83962 -0.10486,-0.16967 0.49874,-2.44984 1.34152,-5.06687 0.84277,-2.61705 1.63969,-5.26211 1.77095,-5.87768 0.14252,-0.66839 0.42671,-0.99165 0.75499,-0.99529 z" />
    </mask>
  </defs>
  <metadata
     id="metadata5">
    <rdf:RDF>
      <cc:Work
         rdf:about="">
        <dc:format>image/svg+xml</dc:format>
        <dc:type
           rdf:resource="http://purl.org/dc/dcmitype/StillImage" />
        <dc:title></dc:title>
      </cc:Work>
    </rdf:RDF>
  </metadata>
  <path
     id="rect927"
     style="fill:#fefefe;fill-opacity:1;stroke-width:0.268137;stroke-linecap:round;stroke-linejoin:round"
     d="m 75.66153,38.121703 c -6.398789,-0.02569 -12.580602,1.981364 -16.529222,5.366081 -1.082331,0.927761 -2.517206,1.670539 -3.948597,2.044319 -2.79315,0.729401 -6.389494,2.525501 -7.534423,3.762563 -1.586561,1.714248 -2.910935,4.890098 -2.910935,6.980967 0,4.712917 2.564881,8.296265 6.835243,9.549805 l 2.503207,0.73484 0.367419,3.755843 c 0.250939,2.567429 0.192241,7.402279 -0.185518,15.280203 -0.803362,16.753566 -0.749149,26.976836 0.165881,31.178976 0.94226,4.32714 2.397601,8.64501 4.078819,12.10314 1.267812,2.60777 1.335836,2.97003 1.335836,7.09982 0,4.3293 -0.0049,4.35054 -0.894,4.07831 -0.491771,-0.15051 -2.185112,-0.37324 -3.762563,-0.49507 -3.60158,-0.27815 -6.372408,0.72657 -8.771557,3.18069 -2.29675,2.34938 -3.242897,4.65357 -3.253549,7.92251 -0.01151,3.52932 0.957921,5.99179 3.84266,9.75807 3.487139,4.55277 7.737753,7.43177 13.930934,9.43663 1.6945,0.54854 3.70658,1.34279 4.471561,1.76527 1.849729,1.02153 8.599313,1.07158 17.179311,0.12712 v 5.3e-4 c 5.90908,-0.65046 6.390812,-0.65107 8.807733,-0.007 1.73427,0.46212 4.078579,0.6811 7.287408,0.6811 7.005192,0 9.917742,-1.11922 10.656712,-4.09588 0.15233,-0.61359 0.6575,-1.35806 1.12242,-1.65416 1.28047,-0.8155 6.01388,-1.40301 11.30422,-1.40301 3.8202,0 4.84367,0.12151 5.25962,0.6227 1.1558,1.39265 2.64729,1.76197 7.01198,1.73788 2.36043,-0.013 5.18585,-0.19996 6.27868,-0.41548 1.09282,-0.21553 5.20837,-0.54387 9.14518,-0.72967 6.66166,-0.31441 7.38411,-0.42471 10.4221,-1.59629 3.66425,-1.41308 7.26356,-3.87419 9.15035,-6.25646 1.94223,-2.45225 3.95083,-7.00762 4.48396,-10.16837 0.60415,-3.58181 0.25369,-9.04916 -0.83147,-12.9651 -1.75734,-6.34157 -6.71929,-14.67997 -11.84372,-19.90318 -1.97613,-2.01422 -3.31298,-3.80855 -4.1243,-5.53507 -2.0986,-4.46584 -4.87239,-7.51452 -10.04383,-11.040664 -1.8166,-1.23865 -6.75498,-3.2336 -9.90069,-3.999241 -2.1194,-0.515844 -4.43708,-0.677783 -9.37255,-0.655772 -5.90377,0.0263 -7.28055,0.174384 -13.81828,1.489832 -10.64721,2.142299 -13.68659,1.973183 -16.101341,-0.896586 -2.2815,-2.711429 -3.269184,-9.480682 -2.648934,-18.159616 l 0.37362,-5.225005 2.704746,-2.726446 c 3.798689,-3.829468 4.949559,-6.374257 5.006929,-11.071678 0.0389,-3.182106 -0.0819,-3.832121 -1.09554,-5.896279 C 97.82721,43.757117 87.204602,38.168098 75.66153,38.121727 Z m 82.48075,98.610517 c 0.42207,-0.005 0.91699,0.51947 1.27744,1.51877 0.8636,2.39424 0.69941,6.03672 -0.34158,7.58145 -1.41529,2.10015 -4.23136,3.76507 -4.80332,2.83962 -0.10486,-0.16967 0.49874,-2.44983 1.34152,-5.06687 0.84277,-2.61704 1.63969,-5.26211 1.77095,-5.87768 0.14252,-0.66839 0.42672,-0.99165 0.75499,-0.99529 z" />
  <path
     style="fill:#e5cdb3;stroke-width:0.397391"
     d="M 26.45833,104.47261 V 31.75 h 84.24697 84.24696 v 72.72261 72.72262 H 110.7053 26.45833 Z"
     id="path1029"
     mask="url(#mask976)" />
  <path
     style="fill:#d5b89d;stroke-width:0.397391"
     d="M 26.45833,104.47261 V 31.75 h 84.24697 84.24696 v 72.72261 72.72262 H 110.7053 26.45833 Z m 109.41442,44.27499 c 3.50217,-0.9075 10.59777,-4.87001 10.59777,-5.91829 0,-0.28572 0.24603,-0.61389 0.54674,-0.72928 0.81137,-0.31136 2.728,-3.32338 3.8401,-6.0348 0.81602,-1.98957 0.97794,-3.04579 0.97794,-6.37925 0,-3.82859 -0.0632,-4.1228 -1.51834,-7.06669 -1.13182,-2.2898 -2.01289,-3.4627 -3.46098,-4.60735 -2.38261,-1.88334 -8.37921,-5.19411 -9.4078,-5.19411 -0.41442,0 -0.94621,-0.19272 -1.18177,-0.42828 -0.73936,-0.73936 -6.67439,-2.08007 -7.89307,-1.78302 -0.75489,0.184 -0.80957,0.49237 -0.79478,4.48292 0.0171,4.60967 -0.49441,6.63147 -1.57297,6.21759 -0.34144,-0.13102 -0.84922,-0.67418 -1.1284,-1.20701 -0.77629,-1.4816 -4.10516,-3.95649 -7.41624,-5.51369 -1.63924,-0.77094 -3.28241,-1.56832 -3.65149,-1.77195 -0.66113,-0.36476 -5.30233,-1.69395 -8.53341,-2.44388 -1.51513,-0.35166 -5.03192,-2.22031 -6.69942,-3.55974 -2.49432,-2.00358 -4.94056,-5.64047 -4.97179,-7.39169 -0.0131,-0.73224 -0.87444,-2.09951 -1.3227,-2.09951 -0.13983,0 -0.25423,1.40201 -0.25423,3.11556 0,3.81373 1.09936,8.3143 2.96439,12.13559 1.52291,3.12032 9.71941,13.6214 12.93485,16.57172 1.09085,1.00091 1.98337,1.96394 1.98337,2.14008 0,0.17615 0.40236,0.70984 0.89413,1.18599 0.49177,0.47614 1.75386,1.88255 2.80464,3.12535 1.05078,1.2428 2.18037,2.25963 2.51021,2.25963 0.32983,0 1.21853,-0.472 1.97487,-1.04889 0.75634,-0.5769 1.49286,-0.93121 1.6367,-0.78737 0.4743,0.4743 1.24889,3.11331 1.05903,3.60808 -0.1024,0.26685 0.0902,0.71457 0.42799,0.99491 0.33779,0.28034 0.61417,0.75117 0.61417,1.04628 0,0.29511 0.4641,1.51677 1.03134,2.7148 0.99799,2.10778 2.72467,3.82217 4.6126,4.57978 1.4509,0.58223 5.74737,0.47299 8.39655,-0.21348 z M 59.16054,82.21925 c 0.7173,-0.59305 7.74705,-5.29182 8.74973,-5.84841 0.47863,-0.26569 1.85379,-1.38649 3.0559,-2.49066 2.88014,-2.64548 4.05266,-2.97121 8.97629,-2.49358 7.67881,0.74491 9.25929,0.33528 10.70735,-2.77505 1.2409,-2.66537 1.31506,-5.43926 0.17305,-6.47276 -0.78421,-0.70971 -0.91394,-0.70934 -4.47065,0.0127 -5.82363,1.18232 -8.63039,0.85886 -8.63039,-0.99458 0,-1.04677 0.637,-1.35441 4.84572,-2.34026 4.92701,-1.1541 5.25621,-1.52585 3.13668,-3.54211 -3.17063,-3.01615 -1.82761,-4.87471 3.73345,-5.16659 2.96363,-0.15555 3.26698,-0.24485 3.0929,-0.91052 -0.14501,-0.55453 -0.36035,-0.64849 -0.86599,-0.37789 -0.9912,0.53048 -1.46752,0.0527 -2.20864,-2.21521 -0.64711,-1.98023 -0.73602,-2.0627 -3.31843,-3.07802 -3.53652,-1.39043 -5.66431,-1.82021 -9.06926,-1.83186 -6.38426,-0.0218 -11.41678,2.84596 -14.80173,8.43485 -0.49641,0.81962 -1.04491,1.49022 -1.21889,1.49022 -0.49949,0 -1.07499,-0.89387 -1.37053,-2.1287 -0.26379,-1.10213 -0.32574,-1.12711 -2.12549,-0.85722 -6.36774,0.9549 -9.86729,4.50987 -9.09917,9.24328 0.12891,0.79434 0.58894,1.79882 1.0223,2.23218 0.94258,0.94258 4.58485,1.52036 5.88205,0.93308 1.08959,-0.49329 2.2225,0.28888 1.89823,1.31056 -0.11979,0.3774 -0.0389,1.15669 0.17973,1.73174 0.30774,0.80943 0.81489,11.81533 0.81489,17.68435 0,0.94065 0.19898,1.03903 0.9109,0.45041 z M 52.48747,59.02073 c -1.92443,-1.10121 -2.22694,-2.42496 -1.0057,-4.40095 1.01832,-1.64769 3.83033,-3.10295 5.65666,-2.92742 1.27897,0.12293 1.3116,0.17282 1.38173,2.11286 0.0955,2.64199 -0.81236,5.12196 -2.08778,5.70308 -1.40816,0.6416 -2.12682,0.55278 -3.94491,-0.48757 z m 19.96304,0.25255 c -0.35884,-0.39651 -1.12513,-1.75344 -1.70288,-3.0154 -1.08738,-2.37516 -1.0814,-2.24428 -0.35376,-7.72992 0.49526,-3.73381 3.42296,-4.86678 5.97682,-2.31292 1.64601,1.64601 1.69015,2.527 0.30522,6.09089 -0.57525,1.4803 -1.35333,3.76442 -1.72906,5.07581 -0.7292,2.54505 -1.42665,3.07354 -2.49634,1.89154 z M 83.03539,48.75766 c -1.45528,-1.98071 -1.64143,-3.89375 -0.37888,-3.89375 0.81114,0 2.712,2.58291 2.54511,3.45831 -0.16414,0.86095 -1.63619,1.15685 -2.16623,0.43544 z m 2.87246,-2.08373 c -0.82241,-1.52713 -0.60562,-2.7316 0.45603,-2.53366 0.82125,0.15312 2.12309,2.55286 1.81726,3.34984 -0.38061,0.99186 -1.51988,0.58283 -2.27329,-0.81618 z m 11.14305,12.2256 c 0.77064,-1.84441 0.45464,-3.53346 -0.93179,-4.98059 -1.05247,-1.09854 -2.10425,-1.46024 -2.10425,-0.72364 0,0.21096 -0.53648,0.99458 -1.19217,1.74138 -1.42662,1.62482 -1.48191,2.24088 -0.29804,3.32094 0.91457,0.83439 3.0253,2.06008 3.5968,2.08864 0.17507,0.009 0.59333,-0.64227 0.92945,-1.44673 z"
     id="path1027"
     mask="url(#mask972)" />
  <path
     style="fill:#aa8a74;stroke-width:0.397391"
     d="M 26.45833,104.47261 V 31.75 h 84.24697 84.24696 v 72.72261 72.72262 H 110.7053 26.45833 Z m 113.84651,46.47414 c 1.25352,-0.75362 3.87096,-2.86426 5.81652,-4.69032 3.29153,-3.08934 3.71392,-3.67279 6.07733,-8.39457 1.39697,-2.79096 2.75521,-6.11139 3.0183,-7.37872 0.74181,-3.57329 0.3232,-12.84869 -0.72552,-16.07574 l -0.83943,-2.58304 -3.09402,-0.0483 c -3.73144,-0.0583 -5.49624,-0.70776 -11.87359,-4.36955 -7.96075,-4.57096 -10.69684,-5.18442 -16.65348,-3.73386 -11.44936,2.78816 -16.07329,2.65051 -21.06766,-0.62713 -2.54613,-1.67094 -6.76027,-6.18043 -7.93412,-8.49018 l -0.90773,-1.78613 -0.49408,2.37455 c -0.56732,2.72663 -0.30537,7.66539 0.61976,11.68483 0.91688,3.98354 3.38227,8.51155 7.15567,13.14233 7.61094,9.34025 10.88893,15.22347 11.88686,21.33413 0.28693,1.75697 1.45972,2.90674 2.96494,2.90674 0.43754,0 1.42141,-0.62589 2.18639,-1.39087 0.76498,-0.76498 1.56288,-1.39087 1.77312,-1.39087 0.73611,0 1.58113,1.21102 2.42608,3.47691 0.9851,2.64169 1.91125,3.75408 4.29082,5.15369 3.0985,1.82248 5.89956,2.51145 9.66733,2.37787 3.09084,-0.10959 3.65115,-0.25606 5.70651,-1.49173 z M 58.7397,100.2211 c 2.86615,-8.5715 8.9654,-20.24864 12.48467,-23.90215 l 2.04647,-2.12453 5.11271,0.28276 5.11271,0.28277 3.92097,-2.0573 c 3.61708,-1.89786 5.05133,-2.99019 8.89092,-6.77137 1.92478,-1.8955 3.2615,-4.90117 3.26631,-7.34442 0.004,-1.95073 -0.0339,-2.01025 -3.19463,-5.04617 -3.16428,-3.03927 -3.19748,-3.09182 -3.10336,-4.91006 0.10461,-2.02105 0.26213,-1.8408 -3.43422,-3.92994 -3.116,-1.76113 -6.69365,-2.90862 -10.59294,-3.39754 -6.71581,-0.8421 -13.03418,1.85675 -16.47679,7.03794 -0.76243,1.14746 -1.5648,2.0863 -1.78305,2.0863 -0.21825,0 -0.58384,-0.53648 -0.81242,-1.19217 -0.51039,-1.46412 -1.50836,-1.54123 -5.19786,-0.40166 -3.37474,1.04235 -5.5793,2.67367 -6.40628,4.7405 -1.89555,4.73745 0.4571,8.85272 5.44822,9.53003 1.24936,0.16954 2.48202,0.51873 2.73927,0.77597 1.03576,1.03576 1.22559,21.49844 0.29178,31.45255 -0.44654,4.75993 -0.51898,10.19413 -0.13073,9.80588 0.14375,-0.14375 0.96197,-2.35658 1.81825,-4.91739 z M 78.61347,61.86977 c -0.81446,-0.98137 0.25528,-1.75951 3.35075,-2.43736 6.06809,-1.3288 6.91838,-2.35119 4.23816,-5.09599 -1.20251,-1.23148 -1.36919,-1.59172 -0.96295,-2.08122 0.64335,-0.77518 4.39904,-1.54294 5.84942,-1.19577 2.35326,0.56329 2.72237,1.59469 1.13775,3.1793 -1.84837,1.84838 -1.2509,3.64444 1.97839,5.94723 2.53799,1.80982 -0.25756,2.95586 -3.3553,1.37551 -1.45525,-0.74242 -1.64269,-0.75167 -3.26265,-0.16112 -2.50575,0.91346 -8.35126,1.21924 -8.97357,0.46942 z m -6.44938,-3.96214 c -1.40433,-2.28181 -1.71673,-3.97203 -1.41148,-7.63657 0.25103,-3.01352 0.40459,-3.51277 1.29623,-4.21414 1.20455,-0.94749 1.76898,-0.98537 3.25239,-0.21827 1.68822,0.87301 2.17394,2.41458 1.44752,4.5941 -2.15434,6.46381 -2.94699,8.5206 -3.33329,8.64937 -0.24121,0.0804 -0.80433,-0.44812 -1.25137,-1.17449 z M 51.89916,56.7399 c -0.014,-1.86752 2.83195,-4.32555 5.00814,-4.32555 1.00896,0 0.56116,0.77843 -0.76704,1.33339 -0.72302,0.3021 -1.97131,1.33275 -2.77396,2.29033 -1.39779,1.6676 -1.45969,1.69721 -1.46714,0.70183 z"
     id="path1025"
     mask="url(#mask968)" />
  <path
     style="fill:#8a705b;stroke-width:0.397391"
     d="M 26.45833,104.47261 V 31.75 h 84.24697 84.24696 v 72.72261 72.72262 H 110.7053 26.45833 Z m 113.59344,47.28975 c 1.36348,-0.72672 4.06062,-2.81014 5.99365,-4.62981 2.80067,-2.63643 3.97505,-4.11467 5.78142,-7.27728 3.31958,-5.81198 4.18654,-8.62286 4.45854,-14.45568 0.24548,-5.26406 -0.36487,-9.47712 -1.86389,-12.8659 -0.73787,-1.66807 -0.86691,-1.76861 -1.88779,-1.47082 -2.91645,0.85074 -6.48043,-0.15923 -12.22748,-3.46503 -8.49925,-4.88891 -11.97226,-5.8984 -16.75046,-4.86884 -1.49434,0.322 -4.41583,0.94916 -6.4922,1.39371 -2.75937,0.59078 -4.84749,0.77334 -7.76015,0.67844 -3.55602,-0.11586 -4.26889,-0.26977 -6.62305,-1.42989 -3.4515,-1.70089 -8.24897,-6.67355 -9.39035,-9.73328 -0.42687,-1.14432 -0.91422,-2.08058 -1.08301,-2.08058 -1.28812,0 -1.79674,8.64699 -0.81021,13.77439 1.12263,5.8348 2.89894,9.20311 8.54096,16.19575 4.20713,5.21426 6.19486,8.24219 8.20712,12.50201 1.53251,3.24422 1.9587,4.5311 2.73351,8.25376 0.28785,1.38302 2.665,2.82397 4.07495,2.47009 0.56046,-0.14066 1.30925,-0.77206 1.66397,-1.4031 0.47434,-0.84381 0.89823,-1.11817 1.60233,-1.03707 0.77761,0.0896 1.16437,0.62247 2.05969,2.83806 1.30872,3.23857 2.26942,4.35459 4.93076,5.72798 5.50709,2.84193 10.5982,3.14485 14.84169,0.88309 z M 57.88642,105.03253 c 2.2492,-8.59113 9.45051,-23.69053 13.36525,-28.02368 1.82262,-2.01742 3.41935,-2.43488 7.17603,-1.87614 3.82327,0.56863 6.37225,0.018 9.61291,-2.07652 1.3335,-0.86188 2.57007,-1.56706 2.74793,-1.56706 0.17786,0 1.95727,-1.58033 3.95424,-3.51185 4.03504,-3.90278 5.26935,-6.04088 5.29358,-9.16974 0.0195,-2.51545 -0.25091,-2.95849 -3.64866,-5.97823 -2.84477,-2.52828 -2.85712,-2.54807 -2.66325,-4.26803 0.23193,-2.05773 -0.2545,-2.55007 -4.64757,-4.704 -5.31293,-2.60494 -12.14553,-3.63596 -16.87298,-2.54609 -2.99425,0.6903 -5.92121,2.39804 -8.19399,4.78081 -1.20106,1.25919 -2.18375,2.48153 -2.18375,2.71633 0,0.77912 -1.134,0.44141 -1.4071,-0.41905 -0.24077,-0.75859 -0.47949,-0.82381 -2.31178,-0.63159 -2.65095,0.2781 -6.29683,1.65994 -7.86821,2.98218 -2.72134,2.28985 -3.48481,6.45746 -1.73113,9.44987 1.10435,1.88443 3.59712,3.35156 5.69456,3.35156 2.48662,0 2.73186,0.68851 3.06274,8.5987 0.1895,4.53017 0.11946,10.11749 -0.19358,15.44348 -0.94956,16.15523 -1.00194,21.58587 -0.20048,20.7844 0.10582,-0.10581 0.56268,-1.60672 1.01524,-3.33535 z M 79.60943,62.05521 c -0.38249,-0.089 -0.69544,-0.47109 -0.69544,-0.84917 0,-0.53884 0.80437,-0.88135 3.7212,-1.58453 4.06404,-0.97974 5.4188,-1.68768 5.4188,-2.83161 0,-0.78137 1.29101,-1.42785 1.98942,-0.9962 0.22384,0.13833 0.65843,0.85333 0.96576,1.58887 0.3132,0.7496 1.27671,1.81246 2.19234,2.41839 0.89845,0.59458 1.56934,1.27703 1.49085,1.51656 -0.24576,0.75005 -2.1493,0.71362 -3.67747,-0.0704 -1.4042,-0.7204 -1.56834,-0.7239 -3.90229,-0.0832 -2.59376,0.71201 -6.35368,1.15864 -7.50317,0.89127 z m -7.69792,-5.85913 c -0.96818,-2.11477 -1.00566,-2.43562 -0.68667,-5.87705 0.31027,-3.3474 0.42092,-3.68689 1.3757,-4.22105 1.3604,-0.76109 3.2748,-0.0319 3.90393,1.4869 0.37584,0.90735 0.20605,1.68512 -1.15808,5.30509 -0.87917,2.33303 -1.59849,4.42166 -1.59849,4.64141 0,0.21975 -0.18277,0.5125 -0.40615,0.65056 -0.22619,0.13979 -0.85995,-0.74017 -1.43024,-1.98586 z"
     id="path1023"
     mask="url(#mask964)" />
  <path
     style="fill:#7b614f;stroke-width:0.397391"
     d="M 26.45833,104.47261 V 31.75 h 84.24697 84.24696 v 72.72261 72.72262 H 110.7053 26.45833 Z m 113.32568,47.98501 c 3.12964,-1.5856 7.24169,-4.99321 9.23121,-7.64978 1.79744,-2.40011 4.42981,-7.0581 5.8851,-10.41373 2.21214,-5.10074 2.34642,-14.57714 0.29271,-20.65661 -1.03615,-3.06724 -1.56527,-3.56678 -3.10323,-2.92974 -1.87576,0.77697 -5.49032,-0.43692 -12.15212,-4.08108 -10.18949,-5.57388 -11.13556,-5.72635 -21.28455,-3.43017 -2.57003,0.58146 -5.29756,0.87381 -8.54392,0.91577 -4.58142,0.0592 -4.87192,0.0127 -7.39732,-1.18384 -4.13103,-1.95735 -8.27672,-6.64445 -9.72942,-11.00005 -0.35098,-1.05234 -0.74737,-1.80414 -0.88086,-1.67064 -0.13349,0.13348 -0.56219,1.08391 -0.95266,2.11204 -1.27977,3.36967 -0.91631,11.02568 0.82577,17.3944 0.64395,2.35413 3.81568,7.37067 7.66167,12.11801 6.41038,7.91272 9.64034,13.95662 10.49132,19.63133 0.14874,0.99189 0.40401,1.80344 0.56726,1.80344 0.16325,0 0.96947,0.45648 1.79162,1.0144 1.98187,1.34494 3.40293,1.06178 4.31972,-0.86074 0.42829,-0.89814 0.90033,-1.35581 1.31432,-1.27431 0.72563,0.14284 0.85969,0.35693 2.3193,3.70369 0.57193,1.31139 1.52153,2.8925 2.11023,3.51357 2.28803,2.41386 7.17897,4.18266 11.65274,4.21419 2.65647,0.0187 3.34761,-0.13856 5.58111,-1.27015 z M 57.66832,108.54588 c 1.44688,-6.91693 3.19444,-11.72371 7.11545,-19.57153 4.2893,-8.58495 6.53213,-12.02502 8.54087,-13.10006 0.64857,-0.34711 2.16004,-0.40917 5.33351,-0.219 4.92821,0.29532 6.87374,-0.1317 9.08773,-1.99465 0.66497,-0.55953 1.85574,-1.35268 2.64618,-1.76255 0.79043,-0.40988 2.97432,-2.23969 4.85309,-4.06626 2.7563,-2.67972 3.58124,-3.76284 4.27195,-5.60894 1.6237,-4.33971 0.76576,-7.21538 -2.87358,-9.63176 -2.40745,-1.59846 -3.15485,-2.86133 -2.80309,-4.73637 0.28112,-1.49851 -0.28809,-2.02424 -4.46367,-4.12264 -7.30675,-3.67193 -15.57341,-4.07131 -21.63983,-1.04545 -2.24577,1.12017 -5.91077,4.37054 -5.91077,5.24209 0,0.28142 -0.26824,0.51167 -0.59608,0.51167 -0.32785,0 -0.59609,-0.29127 -0.59609,-0.64728 0,-0.54486 -0.30695,-0.60656 -1.9399,-0.38994 -6.64907,0.88203 -10.45203,3.61918 -11.31617,8.14473 -0.77846,4.07683 3.08895,8.37686 7.54458,8.38854 1.79577,0.005 1.92819,0.71373 2.06747,11.0704 0.0722,5.36549 -0.0716,12.71494 -0.31942,16.33211 -1.02462,14.95389 -0.95706,18.29971 0.36951,18.29971 0.21981,0 0.50253,-0.49177 0.62826,-1.09282 z M 79.21204,61.7311 c -0.59782,-0.62022 -0.26348,-0.9497 1.39087,-1.37061 5.63306,-1.43321 7.01673,-1.99864 7.5345,-3.07892 0.79936,-1.66783 1.73693,-1.58561 2.66508,0.2337 0.44182,0.86605 1.43477,1.9649 2.20654,2.44188 2.60791,1.61177 1.34695,2.50534 -1.69111,1.19839 -1.90131,-0.81792 -2.06373,-0.82643 -4.11193,-0.21549 -2.47844,0.73926 -7.55926,1.24204 -7.99395,0.79105 z M 72.2387,55.59348 c -0.99196,-2.231 -1.12057,-8.04302 -0.19838,-8.96521 0.83754,-0.83754 2.76996,-0.70198 3.73387,0.26193 1.02853,1.02852 0.90292,1.91811 -0.83607,5.92154 -0.71204,1.63924 -1.4318,3.33808 -1.59946,3.77522 -0.26282,0.68522 -0.41444,0.54828 -1.09996,-0.99348 z"
     id="path1021"
     mask="url(#mask960)" />
  <path
     style="fill:#725949;stroke-width:0.397391"
     d="M 26.45833,104.47261 V 31.75 h 84.24697 84.24696 v 72.72261 72.72262 H 110.7053 26.45833 Z m 45.8513,62.79605 c 0.19041,-1.19077 0.55424,-1.72339 1.63239,-2.38973 1.55848,-0.96319 2.49254,-0.93223 3.14112,0.10413 0.3391,0.54184 0.28052,0.98204 -0.25545,1.91981 -0.77199,1.35071 -0.87562,1.94715 -0.33832,1.94715 0.19642,0 0.91172,-1.06564 1.58957,-2.36807 1.97463,-3.79414 1.66273,-6.20756 -1.70217,-13.17097 -1.00874,-2.08753 -1.83408,-3.9907 -1.83408,-4.22926 0,-0.23857 -0.81281,-1.38599 -1.80623,-2.54982 -1.4141,-1.65666 -1.78077,-2.37546 -1.68892,-3.31093 0.18494,-1.88353 1.32156,-1.67574 5.15851,0.94308 4.33539,2.95902 7.13235,4.02278 11.57025,4.40048 1.92364,0.16372 3.68166,0.4818 3.90671,0.70684 0.91626,0.91627 2.34271,5.87151 2.58041,8.96391 l 0.25092,3.26431 -1.459,1.74631 c -1.90191,2.27643 -2.31464,3.08911 -2.0278,3.99285 0.3626,1.14244 1.39745,1.3697 1.39924,0.30727 0.002,-1.24691 1.37311,-3.34291 2.39976,-3.66876 1.37543,-0.43654 2.20481,0.65796 1.72483,2.27623 -0.65577,2.21098 -0.32858,2.75666 1.56998,2.6184 l 1.65569,-0.12057 0.12476,-1.97687 c 0.21196,-3.35833 1.42893,-3.92844 3.07527,-1.44066 0.56411,0.85243 0.99252,1.79127 0.95203,2.08631 -0.0405,0.29504 -0.0524,0.78977 -0.0266,1.09941 0.077,0.92014 0.63776,0.0549 0.70833,-1.09283 0.33953,-5.52159 0.53786,-6.9344 1.26448,-9.00753 0.45964,-1.3114 1.38854,-3.45731 2.06423,-4.7687 0.77053,-1.49546 1.15995,-2.75472 1.04456,-3.37783 -0.19597,-1.05827 0.51631,-5.03201 1.05066,-5.86152 0.48926,-0.75951 1.28307,-0.59873 2.62694,0.53206 0.74277,0.625 1.22267,1.40488 1.22267,1.98696 0,1.05275 0.26107,1.1414 1.72375,0.58529 0.79342,-0.30166 0.97331,-0.63394 0.94196,-1.73991 -0.0451,-1.5926 1.06337,-3.51971 1.85081,-3.21754 0.29756,0.11418 1.01174,1.4074 1.58707,2.87382 1.06107,2.70447 5.36799,8.19986 7.03388,8.97483 0.42418,0.19732 0.77123,0.50477 0.77123,0.68323 0,0.17844 1.0025,0.96574 2.22777,1.74954 1.88575,1.2063 2.19945,1.57322 2.04332,2.38998 -0.15891,0.83129 -0.0626,0.93431 0.69553,0.74403 1.31283,-0.3295 2.26303,0.82779 2.11206,2.57239 -0.105,1.21336 -7.9e-4,1.43684 0.67045,1.43684 0.55142,0 0.83086,-0.3042 0.91261,-0.99347 0.30125,-2.54001 1.38851,-3.84569 2.82317,-3.39034 0.46781,0.14847 0.88468,-0.32176 1.52754,-1.72307 0.48628,-1.06 1.68168,-2.66241 2.65644,-3.56091 2.19172,-2.02024 4.99547,-5.68673 4.99547,-6.53259 0,-0.34645 0.90506,-2.29729 2.01125,-4.3352 4.43628,-8.17287 5.462,-10.65602 5.96266,-14.43486 0.6745,-5.09094 0.28881,-10.76998 -1.0068,-14.82457 -0.58,-1.81512 -1.30969,-3.39812 -1.62152,-3.51778 -0.31182,-0.11966 -1.11247,-0.0274 -1.77921,0.20503 -1.61093,0.56158 -2.83679,-0.018 -4.20061,-1.98597 -2.56873,-3.70669 -6.45178,-6.25653 -10.84361,-7.12057 -3.01847,-0.59385 -11.21693,-0.28764 -15.34608,0.57317 -10.65464,2.22118 -15.99901,2.21071 -20.14751,-0.0395 -2.93929,-1.5943 -6.97447,-6.36539 -8.0945,-9.57071 -0.51187,-1.46491 -1.05685,-2.66347 -1.21106,-2.66347 -0.15421,0 -0.49111,0.62589 -0.74867,1.39087 -0.68218,2.02608 -1.43306,1.71662 -2.41054,-0.99348 -1.43547,-3.97983 -1.80649,-6.23968 -1.79374,-10.92544 0.0139,-5.12037 0.31321,-5.88036 2.81913,-7.15879 2.29306,-1.16983 8.06649,-6.88629 9.15859,-9.06821 0.51687,-1.03265 1.00152,-2.84213 1.09167,-4.07585 0.1392,-1.90501 -0.0182,-2.56521 -1.11329,-4.66934 -1.08814,-2.09077 -1.43438,-2.45061 -2.35804,-2.45061 -1.21135,0 -2.82583,-1.46479 -2.89967,-2.63081 -0.026,-0.41086 0.0783,-1.12883 0.23179,-1.59549 C 94.52401,46.677 92.93839,45.3284 89.11702,43.50351 83.4626,40.80326 76.99164,39.87744 71.99951,41.05446 c -2.74647,0.64754 -7.87133,2.83905 -8.12021,3.47237 -0.0729,0.1854 -0.30832,0.33708 -0.52326,0.33708 -0.21493,0 -0.97444,0.44518 -1.6878,0.98928 -0.74514,0.56835 -2.55153,1.27082 -4.24544,1.65096 -5.84253,1.31117 -8.59835,3.17073 -9.72476,6.56201 -0.82839,2.49407 -0.58451,4.64919 0.75524,6.67368 1.16047,1.75359 3.82577,3.19886 5.8992,3.19886 0.80187,0 1.64007,0.27065 1.93362,0.62436 0.74394,0.8964 0.98105,16.06682 0.38775,24.80868 -0.25959,3.82489 -0.57044,9.64139 -0.69079,12.92554 -0.1984,5.41454 -0.14409,6.13693 0.58267,7.74913 0.44081,0.97787 0.93148,2.76149 1.09038,3.9636 0.66443,5.0265 2.38923,10.39042 4.79187,14.90217 1.23444,2.31808 1.26411,2.4906 1.06728,6.20703 -0.23882,4.50938 0.52746,8.60997 2.27153,12.15569 3.19928,6.50416 5.41851,11.8458 5.849,14.07839 0.11105,0.57596 -0.008,1.44026 -0.26556,1.92067 -0.37271,0.69643 -0.35074,1.00773 0.10844,1.53585 0.62799,0.72229 0.50422,1.48035 -0.41391,2.53519 -0.32584,0.37435 -0.4881,0.95252 -0.36059,1.28482 0.40016,1.04279 1.34974,0.23768 1.6054,-1.36116 z M 79.5382,61.59984 c -0.39745,-0.64308 0.0941,-1.23767 1.02311,-1.23767 0.4431,0 2.16036,-0.39363 3.81614,-0.87474 2.405,-0.6988 3.13743,-1.09793 3.64157,-1.98444 0.86001,-1.51231 2.0635,-1.43471 2.81671,0.18163 0.32785,0.70354 1.22198,1.69395 1.98696,2.20093 0.76498,0.50697 1.45048,1.08985 1.52333,1.29528 0.21584,0.6086 -1.78357,0.42606 -3.31089,-0.30227 -1.32303,-0.63091 -1.58122,-0.63252 -3.88805,-0.0244 -3.51122,0.92569 -7.26997,1.29403 -7.60888,0.74565 z m -7.29564,-10.8744 c -0.22577,-0.27321 -0.52847,-1.12825 -0.67268,-1.90009 -0.20758,-1.11109 -0.0982,-1.55179 0.52539,-2.1161 1.08755,-0.98422 2.78319,-0.69893 3.7748,0.6351 0.77553,1.04335 0.78169,1.1487 0.14507,2.48369 -0.56721,1.18946 -0.86281,1.39413 -2.01345,1.39413 -0.74175,0 -1.53336,-0.22353 -1.75913,-0.49673 z m 58.94801,111.44776 c 0.40834,-1.38296 0.4002,-1.6684 -0.0476,-1.6684 -0.70153,0 -1.36293,1.25688 -1.36293,2.59003 0,1.56191 0.83907,1.01366 1.41049,-0.92163 z m 9.35635,-0.20053 c -0.51897,-0.51897 -0.59116,0.0562 -0.14836,1.18202 0.27614,0.70209 0.29157,0.70175 0.43466,-0.01 0.0816,-0.4057 -0.0472,-0.93324 -0.2863,-1.1723 z M 66.99225,160.9484 c 0,-0.68157 -3.13001,-7.84727 -5.22766,-11.96795 -2.58847,-5.08487 -3.64591,-5.96087 -7.19548,-5.96087 -4.51162,0 -7.4819,2.79693 -7.76967,7.31621 l -0.15685,2.46339 2.72374,2.40899 c 3.46366,3.06338 7.63138,5.14165 11.66505,5.81687 1.92483,0.32221 5.96087,0.27032 5.96087,-0.0766 z"
     id="path1019"
     mask="url(#mask956)" />
  <path
     style="fill:#5f4737;stroke-width:0.397391"
     d="M 26.45833,104.47261 V 31.75 h 84.24697 84.24696 v 72.72261 72.72262 H 110.7053 26.45833 Z m 45.62053,64.69532 c 0.26228,-0.26228 0.47687,-0.79253 0.47687,-1.17835 0,-0.84359 2.25861,-3.51087 2.97295,-3.51087 0.27844,0 0.72813,0.26735 0.99931,0.5941 0.39712,0.4785 0.36793,0.78507 -0.15003,1.57558 -0.90478,1.38086 -0.83602,2.59902 0.14669,2.59902 1.00916,0 3.58152,-4.94057 3.58152,-6.8788 0,-3.08331 -4.61267,-13.6144 -7.20916,-16.45907 -1.61912,-1.77389 -1.95101,-3.04209 -0.90151,-3.44482 0.7294,-0.27989 0.98815,-0.15089 3.14327,1.56716 3.81773,3.04347 8.08814,4.73008 13.13399,5.18732 1.62443,0.14721 3.11653,0.46665 3.31579,0.70988 0.79743,0.97344 2.12137,6.40003 2.17288,8.90625 0.0526,2.55932 -0.0109,2.748 -1.63247,4.8486 -1.82951,2.37 -2.04961,3.31596 -1.03294,4.43936 0.89897,0.99336 1.72636,0.91321 1.72816,-0.1674 0.002,-1.40337 1.45221,-3.47718 2.43103,-3.47718 0.77953,0 0.83388,0.15147 0.61842,1.72339 -0.30939,2.25727 0.46772,3.4427 2.2569,3.4427 1.75873,0 2.24259,-0.62003 2.24259,-2.87369 0,-1.4203 0.17124,-1.98566 0.65799,-2.17244 0.87553,-0.33598 2.12375,1.22575 2.12375,2.65715 0,1.22045 1.00887,2.33386 1.58904,1.75369 0.19974,-0.19975 0.47722,-1.88208 0.61661,-3.73851 0.31489,-4.19376 1.13077,-7.33597 2.83399,-10.91456 0.84862,-1.783 1.31863,-3.36954 1.31863,-4.45109 0,-0.92431 0.19364,-2.5835 0.43031,-3.68708 0.36935,-1.72218 0.56325,-2.00652 1.36834,-2.00652 1.13889,0 2.17526,1.36745 2.17526,2.87016 0,1.21556 0.71425,1.41688 2.5503,0.71881 0.91206,-0.34676 1.00795,-0.58591 0.96682,-2.4113 -0.0827,-3.66872 1.41468,-3.73533 2.79329,-0.12427 1.45749,3.81765 6.17858,9.4993 9.88329,11.89416 1.14746,0.74176 2.0863,1.50015 2.0863,1.6853 0,0.18515 -0.54665,0.82371 -1.21478,1.41901 -1.00658,0.89687 -1.19388,1.33323 -1.09282,2.54608 0.17946,2.15389 1.31826,2.21189 1.95119,0.0994 0.88754,-2.96236 2.74076,-3.28587 2.74076,-0.47845 0,1.64426 0.78582,2.68645 1.74738,2.31746 0.31093,-0.11931 0.85798,-1.22362 1.21567,-2.45403 0.55982,-1.92572 0.77223,-2.21975 1.52604,-2.11252 0.71793,0.10213 0.91149,0.44673 1.07439,1.91283 0.1619,1.45711 0.34588,1.78826 0.99348,1.78826 0.84573,0 0.84488,0.009 0.34633,-3.82298 l -0.23884,-1.83603 3.36324,-3.63427 c 3.09344,-3.34273 5.86796,-7.74507 5.86796,-9.31072 0,-0.29667 1.32289,-3.1489 2.93975,-6.33827 3.5568,-7.01603 4.00501,-9.06191 3.71521,-16.95812 -0.1624,-4.4251 -0.38124,-5.91623 -1.22328,-8.33538 -1.06502,-3.05977 -1.6391,-3.78373 -2.64994,-3.34181 -0.32785,0.14334 -1.12292,0.27558 -1.76683,0.29388 -0.96057,0.0273 -1.38704,-0.28778 -2.3755,-1.755 -4.04399,-6.00264 -10.30913,-8.79441 -18.31028,-8.1591 -1.74852,0.13883 -5.32504,0.58961 -7.94783,1.00173 -2.62278,0.41211 -6.15161,0.96339 -7.84183,1.22504 -3.91224,0.60565 -10.31659,0.3039 -12.42512,-0.58542 -1.57794,-0.66554 -5.47019,-4.16891 -7.03786,-6.33471 -0.44963,-0.62118 -1.21569,-2.3117 -1.70237,-3.75672 -0.48667,-1.44501 -1.0804,-2.69248 -1.31939,-2.77215 -0.239,-0.0797 -0.58829,0.44849 -0.7762,1.17368 -0.45931,1.77254 -0.94291,1.57874 -1.81511,-0.72739 -1.29093,-3.41334 -1.95082,-8.32734 -1.65567,-12.32946 0.29369,-3.98248 0.36581,-4.10812 3.27466,-5.7046 0.92652,-0.50851 1.7826,-1.20568 1.90239,-1.54926 0.1198,-0.34358 1.08812,-1.29481 2.15183,-2.11384 2.35736,-1.81512 4.21834,-4.53762 5.04464,-7.37999 0.68065,-2.34135 0.46387,-3.89834 -1.027,-7.3764 -0.72365,-1.68822 -0.89982,-1.83576 -2.19189,-1.83576 -2.14791,0 -3.14227,-1.20631 -2.81167,-3.41096 0.26105,-1.74079 0.25904,-1.74439 -1.64967,-2.95725 -4.73261,-3.00725 -10.3455,-4.76154 -15.48365,-4.83936 -5.11364,-0.0774 -11.54065,1.95715 -15.43696,4.88689 -1.34075,1.00815 -2.89165,1.71683 -4.7687,2.17905 -6.80849,1.6766 -9.73609,4.52296 -9.73609,9.46593 0,2.04711 0.83864,3.82034 2.49434,5.27406 1.36134,1.19528 1.82365,1.36699 5.13305,1.90648 1.04365,0.17014 1.55067,0.49369 1.75453,1.11961 0.44497,1.36629 0.29093,22.47833 -0.20939,28.69772 -0.69789,8.67535 -0.67967,13.93411 0.0585,16.88914 0.35489,1.42067 0.93356,4.04983 1.28592,5.84258 0.85967,4.37382 1.96108,7.64244 3.82622,11.35495 1.54924,3.08369 1.5525,3.10027 1.56219,7.94783 0.0117,5.83637 0.33849,7.40955 2.45391,11.81203 4.13728,8.61031 6.05518,13.53053 5.70466,14.63491 -0.1225,0.38598 -1.12311,1.38841 -2.22358,2.22764 -1.93255,1.47378 -2.76557,2.49137 -2.76557,3.37829 0,0.89673 0.75015,0.35925 1.48877,-1.0667 0.86195,-1.66403 2.57112,-2.55668 3.36852,-1.75927 0.37761,0.37761 0.32181,0.77918 -0.25783,1.85552 -0.60516,1.12371 -0.64821,1.48392 -0.2366,1.97988 0.60671,0.73104 0.89252,0.7554 1.51853,0.12939 z M 79.31138,61.22155 c 0,-0.18303 1.47532,-0.70178 3.27848,-1.15278 4.56573,-1.14193 5.4232,-1.53415 5.85881,-2.67991 0.52302,-1.37563 1.43424,-1.25355 2.17154,0.29092 0.3391,0.71034 1.24162,1.71693 2.0056,2.23688 2.44529,1.6642 1.45431,2.23038 -1.52681,0.87232 -1.65857,-0.75557 -1.71545,-0.75557 -4.44026,0 -2.79534,0.77512 -7.34736,1.04312 -7.34736,0.43257 z m -6.855,-10.82599 c -0.4776,-0.27817 -0.69543,-0.89945 -0.69543,-1.98339 0,-1.31304 0.17321,-1.65726 1.03047,-2.04786 2.25865,-1.0291 4.37758,1.86143 2.71294,3.70083 -0.75203,0.83099 -1.96314,0.96228 -3.04798,0.33042 z m -6.01524,111.30141 c 1.56838,0 0.81927,-2.38697 -3.82376,-12.18416 -1.9856,-4.18979 -2.51693,-4.98248 -3.99547,-5.96087 -1.44411,-0.9556 -2.07926,-1.12044 -4.14666,-1.07616 -2.88411,0.0618 -4.31672,0.71981 -6.26715,2.87871 -1.54966,1.71528 -2.14767,3.78171 -1.94316,6.71462 0.15029,2.15545 5.51799,6.49042 10.23517,8.26596 2.5,0.941 7.68176,1.82511 8.83573,1.50755 0.29108,-0.0801 0.78847,-0.14565 1.1053,-0.14565 z"
     id="path1017"
     mask="url(#mask952)" />
  <path
     style="fill:#4b3327;stroke-width:0.397391"
     d="M 26.45833,104.47261 V 31.75 h 84.24697 84.24696 v 72.72261 72.72262 H 110.7053 26.45833 Z m 46.10795,64.7748 c 0.15972,-0.32785 0.57016,-1.2514 0.91209,-2.05235 0.58015,-1.35898 1.9937,-2.31682 2.56944,-1.74108 0.13918,0.13918 0.0363,0.60015 -0.22864,1.02437 -0.72509,1.16104 -0.58764,2.68439 0.2843,3.15104 1.19377,0.63889 1.71307,0.20584 3.20273,-2.67079 1.126,-2.17439 1.37695,-3.0857 1.33907,-4.86287 -0.0862,-4.04336 -4.072,-12.957 -7.48126,-16.73064 -1.31835,-1.45925 -1.53288,-2.34551 -0.56778,-2.34551 0.21505,0 1.32216,0.69588 2.46025,1.5464 4.08037,3.04936 8.15905,4.63618 13.19467,5.13342 l 2.78019,0.27453 0.88312,2.22728 c 1.19303,3.00893 1.86857,7.45707 1.32503,8.72478 -0.22866,0.53333 -1.04188,1.83863 -1.80715,2.90068 -1.56194,2.1677 -1.7701,3.76265 -0.62617,4.79789 1.12549,1.01856 2.10892,0.64137 2.52201,-0.96733 0.35668,-1.38901 1.3202,-2.78113 1.92489,-2.78113 0.17614,0 0.28254,0.86662 0.23646,1.92581 -0.10877,2.49961 0.50793,3.24028 2.69794,3.24028 2.08073,0 2.49787,-0.4695 2.65698,-2.99052 0.0686,-1.08728 0.30359,-1.95903 0.52215,-1.93722 0.49015,0.0489 1.27947,1.57212 1.5842,3.05715 0.28396,1.38376 1.20042,1.77359 2.14978,0.91443 0.53479,-0.48397 0.78091,-1.45703 0.94194,-3.72406 0.25377,-3.57248 1.41479,-8.14749 2.8502,-11.23121 0.55552,-1.19343 1.01178,-2.785 1.01391,-3.53682 0.002,-0.75183 0.21849,-2.40597 0.48079,-3.67587 0.36377,-1.76124 0.64325,-2.30893 1.17819,-2.30893 0.8331,0 1.61555,1.2861 1.29332,2.12582 -0.28218,0.73533 0.48488,2.24627 1.13883,2.24327 1.30086,-0.006 3.44201,-0.89458 3.63717,-1.50948 0.12083,-0.3807 0.0665,-1.22621 -0.12066,-1.8789 -0.41866,-1.45981 0.14736,-3.32334 0.80858,-2.66211 0.24216,0.24215 0.92252,1.5833 1.51191,2.98032 1.10994,2.63087 4.617,7.65782 6.61516,9.48206 0.62948,0.57469 1.90452,1.51577 2.83343,2.09129 1.51515,0.93875 2.27908,2.2286 1.3199,2.2286 -1.64721,0 -2.31953,4.36526 -0.79776,5.17969 1.02032,0.54606 1.96155,-0.10878 1.96155,-1.3647 0,-1.05931 1.114,-2.71803 1.61676,-2.40731 0.20361,0.12584 0.3702,0.91165 0.3702,1.74625 0,1.71763 0.71789,2.5316 2.06443,2.34071 0.73041,-0.10354 1.06393,-0.5972 1.64607,-2.43643 0.83521,-2.6388 1.59518,-2.79973 1.77496,-0.37588 0.14947,2.01504 0.86474,2.72872 2.08194,2.07729 0.79462,-0.42526 0.84131,-0.66002 0.5928,-2.98053 -0.33052,-3.08641 -0.13075,-3.51136 3.35834,-7.14387 2.7886,-2.90323 5.61449,-7.96408 6.13529,-10.98764 0.13739,-0.79764 0.6516,-2.04942 1.1427,-2.78174 0.82583,-1.23149 2.31899,-4.43614 3.39776,-7.29236 1.67558,-4.43636 1.61001,-14.25171 -0.13007,-19.47218 -1.31512,-3.94554 -1.79435,-4.40934 -3.82473,-3.70155 -1.06158,0.37007 -1.31384,0.33253 -1.63621,-0.24352 -0.63626,-1.13693 -3.98309,-5.15562 -4.82286,-5.79102 -3.93467,-2.9771 -4.93241,-3.36098 -10.38955,-3.99735 -3.66763,-0.42769 -7.94391,-0.0182 -19.27348,1.84574 -4.66326,0.76719 -11.81922,0.59124 -13.99964,-0.34421 -1.60066,-0.68672 -5.01445,-3.69362 -6.40134,-5.6384 -0.47244,-0.66246 -1.31407,-2.54475 -1.8703,-4.18286 -1.10108,-3.24271 -2.05568,-4.02636 -2.56811,-2.10823 l -0.29725,1.1127 -0.59498,-1.39087 C 89.09832,86.93713 88.41762,81.14845 88.70043,77.13149 l 0.26024,-3.69633 1.43427,-0.73302 c 0.78885,-0.40316 1.99341,-1.33279 2.67679,-2.06584 0.68339,-0.73305 2.23892,-2.28561 3.45673,-3.45013 3.99498,-3.82014 5.18896,-8.27319 3.45467,-12.88448 -1.07335,-2.85393 -1.70477,-3.51343 -3.10255,-3.24053 -2.02728,0.39581 -2.76194,-0.77031 -2.38957,-3.79296 0.27826,-2.25868 -9.66411,-6.59614 -16.1573,-7.0488 -5.82255,-0.40591 -13.54972,1.81706 -17.41282,5.00934 -1.03964,0.8591 -2.46833,1.67745 -3.17488,1.81856 -4.79391,0.95737 -8.70415,3.19024 -9.99067,5.70498 -1.43327,2.80159 -1.08684,6.53687 0.816,8.79827 1.34788,1.60186 3.02528,2.43893 5.49033,2.73982 l 2.00232,0.24441 0.26859,1.78826 c 0.44586,2.96856 0.35745,17.64924 -0.14838,24.63827 -0.7756,10.71641 -0.66165,17.72951 0.37576,23.1251 1.14208,5.93997 2.56412,10.4287 4.56747,14.41738 1.51423,3.01483 1.5794,3.29537 1.34683,5.79774 -0.46152,4.96571 0.31086,8.73293 2.94587,14.3683 3.29403,7.04478 5.57256,12.89301 5.29999,13.60331 -0.12661,0.32996 -0.84218,0.97814 -1.59015,1.44042 -2.76595,1.70944 -4.30579,5.1033 -2.47378,5.45226 0.45105,0.0859 0.80364,-0.31784 1.12324,-1.28623 0.42126,-1.27644 1.68677,-2.6061 2.48038,-2.6061 0.45199,0 0.37782,1.50011 -0.0884,1.78827 -0.55578,0.34348 -0.4962,1.92789 0.0947,2.51879 0.62823,0.62823 1.92318,0.44069 2.30018,-0.33314 z M 79.86845,61.2201 c 0.15654,-0.2533 0.57778,-0.46054 0.9361,-0.46054 0.35831,0 2.14351,-0.45509 3.96711,-1.01133 2.60835,-0.79559 3.41047,-1.21945 3.76016,-1.98695 0.53544,-1.17516 1.36268,-1.26829 1.70432,-0.19189 0.13681,0.43106 0.98577,1.4146 1.88657,2.18565 1.79765,1.53872 1.30549,1.86731 -1.08758,0.72613 -1.33459,-0.63642 -1.56577,-0.63618 -3.96888,0.004 -3.48132,0.92764 -7.57529,1.34556 -7.1978,0.73477 z M 72.58646,49.66333 c -1.49349,-1.49348 -0.83484,-3.20985 1.23176,-3.20985 1.47055,0 2.56763,1.56535 1.9309,2.75509 C 75.50733,49.66036 75.1516,50.03 74.9586,50.03 c -0.193,0 -0.61995,0.10324 -0.94877,0.22942 C 73.681,50.3856 73.04049,50.11736 72.58646,49.66333 Z M 66.76769,162.1042 c 1.39364,-0.52986 1.31172,-1.41484 -0.52985,-5.72374 -3.10136,-7.25657 -5.574,-11.99718 -6.68561,-12.81782 -5.59984,-4.13409 -14.01911,0.20557 -14.01911,7.22606 0,4.67942 7.3366,10.23785 15.10087,11.44088 2.02683,0.31405 5.14559,0.2503 6.1337,-0.12538 z"
     id="path1015"
     mask="url(#mask948)" />
  <path
     style="fill:#382419;stroke-width:0.397391"
     d="M 26.45833,104.47261 V 31.75 h 84.24697 84.24696 v 72.72261 72.72262 H 110.7053 26.45833 Z m 46.82537,64.61181 c 0.13891,-1.21805 1.13144,-3.01614 1.66489,-3.01614 0.17297,0 0.12298,0.624 -0.11109,1.38667 -0.35893,1.1695 -0.31234,1.51181 0.29748,2.18565 0.72815,0.8046 2.75391,1.09576 3.1512,0.45292 0.11764,-0.19034 0.78944,-0.46118 1.4929,-0.60187 1.94775,-0.38955 2.90236,-1.19626 3.4774,-2.93867 0.45844,-1.38908 0.41881,-2.09488 -0.32026,-5.70431 -0.46388,-2.2655 -0.86118,-4.92381 -0.88287,-5.90735 -0.068,-3.08222 -0.40401,-3.67145 -2.75846,-4.83714 -1.93302,-0.95705 -6.98744,-5.77662 -6.53382,-6.23023 0.0851,-0.0851 1.01253,0.47084 2.06098,1.23539 4.25117,3.10003 9.48913,5.06328 13.5088,5.06328 2.04622,0 2.11201,0.036 2.726,1.49022 0.90143,2.13506 1.86119,6.01573 1.9087,7.71767 0.0305,1.09236 -0.28728,1.86691 -1.2652,3.0838 -2.72769,3.39425 -2.9422,5.52686 -0.70348,6.99373 1.47065,0.96361 2.47546,0.45919 2.77135,-1.39123 0.31831,-1.99059 1.04143,-2.4902 1.04143,-0.71954 0,2.19475 0.91987,3.09231 3.16916,3.09231 2.72934,0 3.1891,-0.25924 3.1891,-1.79827 0,-1.81692 0.39835,-2.81263 0.844,-2.10962 0.1848,0.29154 0.33874,1.0117 0.34209,1.60036 0.004,0.63953 0.3498,1.31105 0.86011,1.66848 0.74234,0.51995 0.9959,0.52482 1.9388,0.0372 1.31243,-0.67868 1.57848,-1.29686 1.57848,-3.66771 0,-1.00109 0.26958,-2.73002 0.59908,-3.84206 0.89213,-3.01091 2.57767,-8.9808 2.98316,-10.5658 0.1957,-0.76498 0.46753,-2.59794 0.60407,-4.07326 0.17918,-1.9361 0.40529,-2.68239 0.81271,-2.68239 0.40928,0 0.56446,0.52437 0.56446,1.90748 0,1.04911 0.21459,2.12207 0.47686,2.38435 0.64933,0.64932 2.43451,0.59941 4.14656,-0.11594 l 1.41877,-0.59279 -0.27945,-2.88438 c -0.32172,-3.32063 0.0696,-3.29359 1.39027,0.0961 1.75214,4.49693 5.50485,9.44667 8.73231,11.51773 1.09851,0.7049 1.99729,1.35242 1.99729,1.43892 0,0.0865 -0.33874,0.496 -0.75275,0.91002 -0.95314,0.95313 -1.44155,3.68077 -0.85525,4.77628 0.46304,0.8652 2.03131,1.4542 2.94174,1.10483 0.29741,-0.11412 0.65593,-0.92786 0.79672,-1.80831 0.34098,-2.13232 1.00475,-2.47143 0.97753,-0.4994 -0.0289,2.09492 0.25105,2.4295 2.03289,2.4295 1.75795,0 2.20454,-0.43085 2.57444,-2.4837 0.33158,-1.84023 1.02729,-1.96134 1.02729,-0.17882 0,2.47591 1.59169,2.96216 3.65669,1.11709 l 1.28488,-1.14805 -0.51319,-2.00235 c -0.51358,-2.0039 -0.1813,-3.64939 0.73693,-3.64939 0.45621,0 3.5773,-3.21106 3.5773,-3.68042 0,-0.18765 0.62589,-1.16088 1.39086,-2.16274 0.76498,-1.00187 1.39087,-2.06409 1.39087,-2.36051 0,-0.29642 0.16134,-0.53894 0.35852,-0.53894 0.19718,0 0.58456,-0.58119 0.86084,-1.29153 1.51039,-3.8834 2.43391,-6.63243 2.70339,-8.04717 0.16652,-0.87426 0.7749,-2.76311 1.35196,-4.19743 2.19913,-5.46617 2.40199,-14.90115 0.45303,-21.07068 -0.56445,-1.7868 -1.41691,-3.63937 -1.89436,-4.11682 -1.21796,-1.21796 -3.43598,-4.05398 -3.43598,-4.39333 0,-0.28734 -1.61701,-1.65988 -2.80903,-2.38435 -0.35962,-0.21857 -1.43943,-0.92101 -2.39959,-1.56099 -2.88853,-1.92531 -7.48328,-3.69818 -11.46576,-4.42402 -4.97457,-0.90666 -10.99972,-0.56896 -18.69345,1.04774 -7.7514,1.62881 -10.92353,1.98139 -13.96214,1.55188 -2.34444,-0.33138 -2.65639,-0.50032 -4.3927,-2.37896 -1.67873,-1.81635 -3.50169,-5.41706 -3.50169,-6.91657 0,-0.29187 -0.38374,-1.39817 -0.85275,-2.45846 -0.80003,-1.80859 -0.83689,-2.33388 -0.59617,-8.49508 0.29804,-7.62798 0.60785,-8.58922 3.505,-10.87464 5.2446,-4.13722 6.81908,-10.13962 4.17477,-15.91556 -1.01597,-2.21916 -1.02912,-2.2297 -2.78238,-2.2297 -2.2785,0 -2.94879,-0.71252 -2.25224,-2.39413 0.43111,-1.0408 0.40252,-1.30835 -0.21237,-1.9878 -2.26898,-2.5072 -10.82891,-5.79083 -16.12224,-6.18456 -6.6112,-0.49177 -14.61281,1.87435 -18.45406,5.45695 -0.82231,0.76694 -2.1933,1.37666 -4.31655,1.9197 -1.71132,0.43768 -3.70004,1.15953 -4.41937,1.6041 -5.22503,3.22925 -6.35879,9.15985 -2.54256,13.29996 1.55901,1.69133 3.66125,2.59187 6.05055,2.59187 0.80547,0 1.00475,0.24532 1.21052,1.49022 0.37565,2.2727 0.26916,19.08519 -0.15921,25.135 -0.9617,13.58185 -0.93782,16.46682 0.18689,22.5806 1.17974,6.41297 2.43536,10.47871 4.49792,14.56444 1.39916,2.7716 1.4104,2.83501 1.48115,8.35627 0.0785,6.12288 0.16552,6.47235 3.14936,12.6424 2.48047,5.12919 5.00765,11.25483 5.00765,12.13809 0,0.4294 -0.67273,1.19083 -1.58617,1.79532 -0.8724,0.57732 -2.06145,1.76788 -2.64235,2.64567 -0.90453,1.36684 -0.9911,1.73885 -0.60292,2.59081 0.24929,0.54714 0.72533,1.0992 1.05785,1.22681 0.80513,0.30895 1.78664,-0.5498 1.78664,-1.5632 0,-0.8375 1.04711,-2.26763 1.66031,-2.26763 0.18973,0 0.0685,0.42186 -0.2693,0.93748 -1.10738,1.69008 0.072,3.52889 2.1515,3.35457 1.24466,-0.10434 1.44156,-0.26572 1.55676,-1.27591 z M 83.14776,60.76227 c 0.18493,-0.17166 1.36343,-0.60483 2.6189,-0.96261 1.5324,-0.4367 2.49438,-0.97362 2.92679,-1.63356 0.72954,-1.11342 1.3475,-1.28218 1.3475,-0.368 0,0.33829 0.49177,1.08261 1.09283,1.65405 0.81917,0.77881 0.8938,0.95317 0.29804,0.6963 -1.12984,-0.48714 -3.18368,-0.37919 -6.0984,0.32052 -1.38704,0.33297 -2.37059,0.46496 -2.18566,0.2933 z M 72.31095,49.05973 c -0.48962,-1.27593 0.0214,-2.01016 1.39909,-2.01016 1.61992,0 2.45671,0.98774 1.65508,1.95364 -0.65347,0.78738 -2.75876,0.82634 -3.05417,0.0565 z m 15.40158,117.35494 c 0.30571,-2.14819 0.81976,-3.22582 2.41403,-5.0607 1.0188,-1.17256 1.12942,-1.53812 0.90189,-2.98044 -0.72113,-4.57124 -1.90352,-6.60239 -3.38263,-5.81079 -0.40246,0.21539 -1.19618,0.39162 -1.76382,0.39162 -1.70049,0 -1.70744,0.37197 -0.19291,10.32434 0.24619,1.61772 0.25361,2.97188 0.02,3.64208 -0.43192,1.23902 -0.19204,1.61118 0.93415,1.44926 0.63199,-0.0909 0.86448,-0.51601 1.06931,-1.95537 z M 63.5799,166.12296 c 0.89464,-1.4172 1.46694,-1.96286 4.20186,-4.00627 0.94588,-0.70672 0.96499,-0.80386 0.44634,-2.26795 -1.81941,-5.13598 -6.75854,-15.25428 -7.97506,-16.33774 -2.56127,-2.28109 -6.37006,-2.72304 -9.78069,-1.13489 -3.41315,1.58932 -5.32921,4.61673 -5.33441,8.42848 -0.005,3.33946 3.99446,9.27538 8.5417,12.67882 2.17832,1.6304 7.24935,4.13103 8.43958,4.16174 0.27047,0.007 0.92777,-0.678 1.46068,-1.52219 z m 91.12141,-2.63857 c 8.20925,-1.33142 13.55804,-5.77675 15.8689,-13.1885 0.93004,-2.98294 1.02338,-3.79567 0.82777,-7.20681 -0.34525,-6.02044 -2.98518,-12.9963 -7.481,-19.76805 -1.50885,-2.27269 -3.95524,-4.93911 -4.53124,-4.93879 -0.25073,1.4e-4 -0.3902,2.60333 -0.3779,7.05334 l 0.0195,7.05313 1.5145,2.58304 c 2.47767,4.22576 2.68552,8.92067 0.54867,12.39348 -1.32729,2.15712 -3.64575,3.54493 -7.13076,4.26842 -1.89076,0.39252 -2.32733,0.68801 -3.91452,2.64956 -0.98254,1.21427 -2.35156,2.9024 -3.04227,3.75139 -1.0877,1.33697 -1.22963,1.77188 -1.0601,3.24844 0.10765,0.93764 0.2648,1.92833 0.34923,2.20154 0.21071,0.68186 3.85502,0.63845 8.40924,-0.10019 z m -38.23384,-0.60841 c 2.18566,-0.19227 5.17085,-0.35738 6.63378,-0.3669 2.28719,-0.0149 2.74653,-0.14107 3.27848,-0.90053 0.92823,-1.32524 0.78205,-2.89221 -0.33829,-3.62629 -1.52882,-1.00172 -5.06366,-4.74166 -5.45731,-5.77395 -0.33254,-0.87208 -0.50474,-0.92326 -2.23846,-0.66528 -1.03301,0.15372 -2.75383,0.40003 -3.82405,0.54736 -2.21169,0.30448 -2.36416,0.50384 -2.98664,3.90508 -0.24611,1.34476 -0.78972,3.48244 -1.20802,4.7504 -0.4183,1.26796 -0.66144,2.46575 -0.5403,2.66176 0.12113,0.196 0.77974,0.23522 1.46357,0.0872 0.68384,-0.14807 3.03159,-0.42653 5.21724,-0.6188 z"
     id="path1013"
     mask="url(#mask944)" />
  <path
     id="path1054"
     style="fill:#e88178;fill-opacity:1;stroke:none;stroke-width:0.264583px;stroke-linecap:butt;stroke-linejoin:miter;stroke-opacity:1"
     d="m 92.57545,51.43106 c 0.94275,0.36373 1.44341,1.51968 1.10044,2.46337 -0.3237,0.95612 -1.15828,1.43325 -1.96314,2.0113 -0.95703,0.55536 -2.029,0.76247 -3.07539,0.55612 -1.37419,-0.28801 -2.75743,-0.89648 -3.61491,-2.05274 -0.39647,-0.51746 -0.70001,-1.27075 -0.33396,-1.8843 0.51503,-0.77591 1.48421,-1.04336 2.35317,-1.1889 0.51571,-0.0808 1.03666,-0.1258 1.55172,-0.20868 0.1,-0.0922 2.51775,-0.23965 3.98207,0.30383 z"
     mask="url(#mask940)" />
  <path
     style="fill:#eea098;fill-opacity:1;stroke:none;stroke-width:0.264583px;stroke-linecap:butt;stroke-linejoin:miter;stroke-opacity:1"
     d="m 56.65326,59.40976 c 1.20303,-0.93882 1.88829,-3.45146 1.9778,-4.55694 0.0895,-1.10548 0.0668,-2.33861 -0.40091,-2.73951 -0.46772,-0.4009 -3.22816,0.14401 -4.74403,1.13589 -1.51588,0.99188 -3.36296,3.04047 -2.40543,4.47677 0.95754,1.4363 4.36954,2.62261 5.57257,1.68379 z"
     id="path1031"
     mask="url(#mask936)" />
  <path
     id="path1043"
     style="fill:#cb7f6e;fill-opacity:1;stroke:none;stroke-width:0.264583px;stroke-linecap:butt;stroke-linejoin:miter;stroke-opacity:1"
     d="m 53.20274,55.35949 c 0.72066,-2.17609 4.42935,-0.96088 5.35583,-2.56158 -0.35118,-2.14145 -3.24263,-0.66613 -4.46239,-0.37818 -1.71161,0.79951 -3.45538,3.07566 -3.05681,5.04763 1.50121,2.02798 1.23029,-0.60712 2.16337,-2.10809 z"
     mask="url(#mask932)" />
</svg>
